<svg width="24" height="24" viewBox="0 0 24 24" fill="none" xmlns="http://www.w3.org/2000/svg">
<path d="M5.25 11.25H20.25C20.4489 11.25 20.6397 11.329 20.7803 11.4697C20.921 11.6103 21 11.8011 21 12C21 12.1989 20.921 12.3897 20.7803 12.5303C20.6397 12.671 20.4489 12.75 20.25 12.75H5.25C5.05109 12.75 4.86032 12.671 4.71967 12.5303C4.57902 12.3897 4.5 12.1989 4.5 12C4.5 11.8011 4.57902 11.6103 4.71967 11.4697C4.86032 11.329 5.05109 11.25 5.25 11.25Z" fill="#1F2933"/>
<path d="M5.55989 12L11.7804 18.219C11.9212 18.3598 12.0003 18.5508 12.0003 18.75C12.0003 18.9492 11.9212 19.1402 11.7804 19.281C11.6396 19.4218 11.4486 19.5009 11.2494 19.5009C11.0502 19.5009 10.8592 19.4218 10.7184 19.281L3.96839 12.531C3.89854 12.4613 3.84313 12.3786 3.80532 12.2874C3.76751 12.1963 3.74805 12.0987 3.74805 12C3.74805 11.9013 3.76751 11.8037 3.80532 11.7125C3.84313 11.6214 3.89854 11.5387 3.96839 11.469L10.7184 4.719C10.8592 4.57817 11.0502 4.49905 11.2494 4.49905C11.4486 4.49905 11.6396 4.57817 11.7804 4.719C11.9212 4.85983 12.0003 5.05084 12.0003 5.25C12.0003 5.44916 11.9212 5.64017 11.7804 5.781L5.55989 12Z" fill="#1F2933"/>
</svg>
