<svg width="90" height="90" viewBox="0 0 90 90" fill="none" xmlns="http://www.w3.org/2000/svg">
<path d="M56.4544 56.9391L55.3083 55.2938C54.5348 54.1758 52.5098 53.6906 52.5098 53.6906L48.3965 56.5453L45.5419 60.3422C44.8879 61.3195 44.895 62.5922 45.5629 63.5555L46.0762 64.3008C46.2169 64.5047 46.4419 64.6102 46.6669 64.6102C46.8075 64.6102 46.9481 64.568 47.0747 64.4836L56.2504 58.0852C56.6231 57.825 56.7075 57.3117 56.4544 56.9391Z" fill="#4568AD"/>
<path d="M36.3449 7.27735C34.0668 4.90781 29.7847 3.59297 26.7121 4.77422C23.2738 6.0961 21.8957 9.04219 22.0715 12.375C22.1347 13.5844 22.416 14.7445 22.7957 15.532C22.8379 15.6234 23.1894 16.3055 23.2527 16.5305C23.5691 17.3742 22.0574 18.5906 22.0574 19.5961C22.0574 20.3484 23.6816 20.4961 23.8222 20.6016C24.5535 21.1289 24.2652 24.3914 28.5051 23.85C29.9324 23.6672 30.0027 23.5195 30.516 23.4914C31.8519 23.407 35.6207 24.6375 35.6207 24.6375L37.1113 21.5156C37.1113 21.5156 35.8879 20.9531 37.0832 17.1773C37.9972 14.2805 37.8004 8.7961 36.3449 7.27735V7.27735Z" fill="#F9DDBD"/>
<path d="M24.6164 22.2398C25.2 22.1555 25.7484 21.9023 26.1563 21.4383C26.6062 20.932 26.1492 20.5734 25.5938 20.9531C25.2563 21.1852 24.75 21.375 24.2578 21.382L24.6164 22.2398V22.2398Z" fill="#444444"/>
<path d="M26.2172 17.6282C26.6355 17.5242 26.8463 16.9237 26.6881 16.2868C26.5299 15.6499 26.0625 15.2178 25.6442 15.3217C25.2258 15.4256 25.015 16.0262 25.1732 16.6631C25.3315 17.3 25.7988 17.7321 26.2172 17.6282Z" fill="#312D2D"/>
<path d="M25.0665 15.0047C24.4126 15.4547 24.0892 15.0398 24.2017 14.5758C24.2861 14.2383 24.6447 13.8586 25.5447 13.7391C26.3884 13.6336 26.8736 13.9781 27.1759 14.182C27.4853 14.3859 27.5486 14.6742 27.3728 14.7586C27.1408 14.8781 25.8822 14.4492 25.0665 15.0047Z" fill="#454140"/>
<path d="M37.3562 8.55C37.0538 8.14219 36.7233 7.7625 36.3437 7.425C35.8093 6.94688 35.1905 6.57422 34.5437 6.27188C32.828 5.47735 30.8593 5.21719 29.003 5.59688C27.1468 5.97656 25.4312 7.01719 24.271 8.51484C23.378 9.675 22.8296 11.2641 23.3921 12.6141C24.0882 12.4102 24.6015 11.8055 25.3608 11.6508C26.3452 11.4398 27.421 11.4258 28.2577 10.8703C28.5812 10.6594 28.8554 10.3711 29.1577 10.132C29.2351 10.1109 29.2843 10.1039 29.2843 10.1039C30.6273 10.4906 29.6358 13.6406 31.3304 15.0117C31.6679 15.2859 32.0616 15.5109 32.0616 15.5109C32.0616 15.5109 31.7733 13.2891 33.1937 13.268C34.6702 13.2469 34.7898 14.7586 34.3679 16.0453C33.9319 17.3813 33.1796 16.9102 33.4468 17.3531C33.8827 18.0773 36.1257 18.2883 36.8288 18.1406C37.771 17.9508 38.3757 16.9242 38.9382 16.1438C39.5921 15.2438 39.5358 14.175 39.4374 13.0641C39.3249 11.8406 38.7413 10.7086 38.0944 9.66094C37.8624 9.27422 37.6233 8.90156 37.3562 8.55V8.55Z" fill="#312D2D"/>
<path d="M58.76 34.8891L54.3936 26.6836L37.4835 36.4641V36.4711C35.5569 37.4906 34.8327 39.8812 35.8522 41.8078C35.9577 42.0117 36.0843 42.1945 36.2249 42.3703L36.253 42.4055C36.2882 42.4477 36.3233 42.4898 36.3585 42.5391L48.2132 56.7914L53.1913 53.1281L45.1897 41.4914L58.76 34.8891V34.8891Z" fill="#EDBD82"/>
<path d="M61.5312 28.1391C60.5469 26.2828 58.6273 25.2141 56.6516 25.2141C55.7727 25.2141 54.8867 25.425 54.057 25.8609V25.8539L42.125 32.7867L47.075 42.0961L59.2461 35.6203C61.9531 34.1859 62.9727 30.8391 61.5312 28.1391V28.1391Z" fill="#646464"/>
<path d="M50.1395 48.6984L44.7676 52.65L48.2129 56.7914L53.184 53.1281L50.1395 48.6984Z" fill="#E0E0E0"/>
<path d="M68.575 53.7258C59.5258 53.7258 52.1641 61.0875 52.1641 70.1297C52.1641 79.1789 59.5258 86.5336 68.575 86.5336C77.6172 86.5336 84.9789 79.1719 84.9789 70.1297C84.9789 61.0805 77.6172 53.7258 68.575 53.7258ZM68.575 80.6766C62.7672 80.6766 58.0211 75.9445 58.0211 70.1297C58.0211 64.3148 62.7602 59.5828 68.575 59.5828C74.3898 59.5828 79.1219 64.3148 79.1219 70.1297C79.1219 75.9445 74.3828 80.6766 68.575 80.6766Z" fill="url(#paint0_radial_29_6992)"/>
<path d="M21.4383 53.7258C12.3891 53.7258 5.02734 61.0875 5.02734 70.1297C5.02734 79.1789 12.3891 86.5336 21.4383 86.5336C30.4805 86.5336 37.8422 79.1719 37.8422 70.1297C37.8352 61.0805 30.4805 53.7258 21.4383 53.7258V53.7258ZM21.4383 80.6766C15.6305 80.6766 10.8844 75.9445 10.8844 70.1297C10.8844 64.3148 15.6234 59.5828 21.4383 59.5828C27.2531 59.5828 31.9852 64.3148 31.9852 70.1297C31.9852 75.9445 27.2531 80.6766 21.4383 80.6766V80.6766Z" fill="url(#paint1_radial_29_6992)"/>
<path d="M70.2556 68.9555C70.1927 68.7864 70.105 68.6277 69.9955 68.4844L63.5478 59.8078L56.39 50.1469L59.0197 44.4305C59.0759 44.3109 59.1181 44.1844 59.1463 44.0578C59.1744 43.9312 59.1955 43.8047 59.1955 43.6781C59.2025 43.5516 59.1884 43.425 59.1673 43.3055C59.1252 43.0594 59.0408 42.8273 58.9072 42.6164C58.7725 42.3947 58.5939 42.203 58.3822 42.053C58.1706 41.9031 57.9305 41.7981 57.6767 41.7445L57.5361 41.7234C57.4517 41.7094 57.3673 41.6953 57.283 41.6953H57.2548C57.2338 41.6953 57.2127 41.7023 57.1986 41.7023C57.058 41.7094 56.9173 41.7234 56.7838 41.7586C56.7486 41.7656 56.7134 41.7727 56.6783 41.7867C56.5236 41.8359 56.3759 41.8992 56.2353 41.9836C56.2283 41.9906 56.2142 41.9977 56.2072 42.0047C56.0806 42.0891 55.9681 42.1875 55.8627 42.293C55.8345 42.3211 55.8064 42.3562 55.7783 42.3844C55.6728 42.5109 55.5744 42.6516 55.5041 42.8062L55.49 42.8344L52.9517 48.3539L30.4728 45.1055L31.2252 42.2578C31.4994 41.2312 30.8806 40.1766 29.847 39.9023C29.84 39.9023 29.8259 39.9023 29.8189 39.8953C29.6642 39.8531 29.5095 39.832 29.3548 39.832C28.5041 39.832 27.7236 40.4016 27.4916 41.2664L25.9025 47.2781L19.9259 69.8977C19.6587 70.9242 20.2705 71.9789 21.297 72.2531C21.4658 72.2953 21.6275 72.3164 21.7962 72.3164H21.8033C22.6541 72.3164 23.4345 71.7469 23.6666 70.882L29.0244 50.5898L43.7478 70.7625C43.783 70.8117 43.8322 70.8539 43.8744 70.8961C43.9166 70.9383 43.9517 70.9805 43.9939 71.0227C44.0361 71.0648 44.0783 71.1 44.1275 71.1352L44.1416 71.1492C44.1486 71.1563 44.1627 71.1633 44.1697 71.1703C44.2119 71.2055 44.2541 71.2336 44.3033 71.2617C44.3244 71.2758 44.3384 71.2898 44.3595 71.2969C44.3806 71.3039 44.4017 71.318 44.4228 71.332C44.4298 71.332 44.4369 71.3391 44.4439 71.3461L44.4861 71.3672C44.5072 71.3742 44.5212 71.3813 44.5423 71.3883C44.5634 71.3953 44.5916 71.4094 44.6127 71.4164C44.6619 71.4375 44.7181 71.4586 44.7673 71.4727C44.8025 71.4867 44.8377 71.5008 44.8798 71.5078C45.0134 71.5359 45.1611 71.557 45.3017 71.557H68.4486C69.1798 71.557 69.8478 71.1492 70.1712 70.4953C70.4244 70.0242 70.4455 69.4547 70.2556 68.9555V68.9555ZM32.9056 49.3664L44.4861 51.0398L51.2783 52.0242L44.9291 65.8406L32.9056 49.3664V49.3664ZM48.3181 67.7039L54.5478 54.1547L64.6166 67.7039H48.3181V67.7039Z" fill="url(#paint2_linear_29_6992)"/>
<path d="M49.9569 69.9469C49.6264 69.2297 49.0217 68.7234 48.3748 68.618C47.5452 68.4773 44.1139 69.5953 43.6077 69.8273C42.3772 70.3758 40.8795 71.9367 41.5616 73.5609C41.9905 74.5594 42.6022 74.8617 43.2561 74.8617C43.8045 74.8617 44.3741 74.6508 44.8944 74.4609L45.2881 74.3203C45.5483 74.2289 45.8506 74.1375 46.167 74.0461C47.5452 73.6383 49.2608 73.125 49.9639 71.9437C50.2803 71.3953 50.2803 70.65 49.9569 69.9469Z" fill="#504F4F"/>
<path d="M30.3548 39.5508L24.3501 38.1094C24.2034 38.0699 24.052 38.051 23.9001 38.0531C23.0282 38.0531 22.2337 38.6437 22.0227 39.5297C21.9631 39.7762 21.9528 40.0321 21.9923 40.2827C22.0318 40.5333 22.1204 40.7736 22.253 40.9898C22.3856 41.2061 22.5596 41.394 22.7651 41.5428C22.9705 41.6916 23.2033 41.7984 23.4501 41.857L29.4548 43.2984C29.6024 43.3336 29.7501 43.3547 29.9048 43.3547C30.7767 43.3547 31.5642 42.7641 31.7821 41.8781C32.0212 40.8445 31.3813 39.8039 30.3548 39.5508Z" fill="#405966"/>
<path d="M62.1847 39.9164C62.0933 39.8461 61.9949 39.7758 61.8964 39.7195C61.0878 39.2625 60.1808 39.368 59.2527 39.3258C58.1277 39.2695 56.9886 39.2203 55.8636 39.15C55.2449 39.1078 54.6261 39.1008 54.0074 39.1008C53.2832 39.1008 52.5519 39.1148 51.8347 39.1148C51.2863 39.1148 50.7449 39.1078 50.2035 39.0797C50.1753 39.0727 50.1332 39.0727 50.091 39.0727C49.0574 39.0727 48.08 39.8531 47.7214 40.7812C47.2152 42.0961 48.1082 42.9258 49.2261 43.5305C50.5972 44.2758 52.1371 44.6273 53.6347 44.993C55.266 45.3867 56.8972 45.907 58.5707 46.132C58.7816 46.1602 58.9925 46.1742 59.2105 46.1742C60.6589 46.1742 62.1566 45.5344 62.9792 44.332C63.9636 42.8977 63.5558 40.9852 62.1847 39.9164V39.9164Z" fill="#504F4F"/>
<path d="M60.848 32.8148L52.9449 27.9211L43.2628 44.8945H43.2699C42.757 45.7234 42.5715 46.7136 42.7495 47.6719L44.6972 65.8406L49.4714 65.7773L50.512 48.2695L60.848 32.8148Z" fill="url(#paint3_linear_29_6992)"/>
<path d="M44.0156 60.4617L44.7047 65.8336L49.4719 65.7703L49.8937 60.3984L44.0156 60.4617Z" fill="#E0E0E0"/>
<path d="M59.8645 25.5797C58.9911 25.0425 57.9859 24.7578 56.9605 24.757C55.1113 24.757 53.2973 25.6852 52.2496 27.3797L45.127 39.6211L54.0918 45.1688C54.0918 45.1688 60.8137 34.7625 61.6574 33.1945C63.0074 30.6633 62.459 27.1898 59.8645 25.5797V25.5797Z" fill="#7C7C7C"/>
<path d="M52.1088 68.5687L51.5674 66.6352C51.2088 65.3133 49.4581 64.1813 49.4581 64.1813L44.6346 65.5172L40.6901 68.1539C39.7549 68.857 39.3401 70.0594 39.6424 71.1984L39.8815 72.0773C39.9659 72.3938 40.2612 72.6047 40.5706 72.6047C40.6339 72.6047 40.6971 72.5977 40.7604 72.5766L51.5393 69.5813C51.9823 69.4617 52.2354 69.0047 52.1088 68.5687V68.5687Z" fill="#4568AD"/>
<path d="M42.9611 16.5516C42.1314 16.3758 41.3017 16.2703 40.5213 16.2703C38.7494 16.2703 37.2658 16.8187 36.633 18.2531C36.1197 19.3922 35.5853 20.5523 35.0299 21.7125C34.0385 23.8148 34.847 27.0422 37.308 27.8156C43.6994 29.8477 43.5236 31.7461 47.2361 33.4687C48.3119 33.968 49.3314 34.1859 50.2877 34.1859C54.9705 34.1859 58.2822 28.9828 60.2369 25.6641C55.9478 21.2836 50.2244 18.1477 42.9611 16.5516V16.5516Z" fill="url(#paint4_radial_29_6992)"/>
<path d="M40.4012 22.0148L34.9309 20.3977L31.6755 32.5055L25.8255 37.4344C24.813 37.0898 23.477 36.907 22.5278 36.907H22.5067C22.4083 36.907 22.3169 36.907 22.2325 36.9141C22.1903 36.9141 22.1551 36.9211 22.12 36.9211C22.0708 36.9281 22.0216 36.9281 21.9794 36.9352C21.9301 36.9422 21.8739 36.9492 21.8317 36.9563C21.8176 36.9563 21.8036 36.9633 21.7825 36.9633C21.6559 36.9844 21.5434 37.0195 21.4731 37.0617C21.213 37.2164 20.8122 37.568 20.4325 37.9125C19.8489 38.4539 19.5466 39.2344 19.6098 40.0289L19.652 40.6055C19.6028 40.7812 19.87 41.1891 20.2708 41.4281C20.2919 41.4422 20.32 41.4562 20.3411 41.4703C20.3622 41.4844 20.3903 41.4914 20.4184 41.5055C20.7278 41.6531 21.1005 41.6883 21.4661 41.4352C21.9442 41.1187 21.4309 40.2398 21.6559 39.8672C21.9161 39.4242 22.3661 38.9742 22.3661 38.9742C22.3661 38.9742 23.7583 38.8687 24.0606 39.0867C24.595 39.5297 24.7497 39.9234 24.4473 40.7672C24.2294 41.3719 23.7301 41.9977 23.9833 42.2016C24.0747 42.2789 24.1661 42.3422 24.2505 42.3984C24.2575 42.4055 24.2645 42.4055 24.2716 42.4125C24.3348 42.4547 24.3981 42.4969 24.4614 42.525C24.4966 42.5461 24.5387 42.5531 24.5739 42.5742C24.602 42.5883 24.6301 42.5953 24.6653 42.6023C24.7216 42.6164 24.7778 42.6234 24.8341 42.6234H24.8622C25.1856 42.6305 25.5372 42.4266 26.0505 41.9133C26.7747 41.182 27.4637 41.4281 28.0192 40.8727L34.9801 36.1969L35.0645 36.1406C35.1981 36.0703 35.3317 35.9859 35.4512 35.8945L35.4794 35.8805C35.8801 35.5641 36.1755 35.1281 36.3231 34.6289H36.3301L40.4223 22.0078L40.4012 22.0148V22.0148Z" fill="url(#paint5_linear_29_6992)"/>
<path d="M23.1609 37.7648C22.057 37.7648 21.1641 38.6578 21.1641 39.7617C21.1641 40.8656 22.057 41.7586 23.1609 41.7586C24.2648 41.7586 25.1578 40.8656 25.1578 39.7617C25.1578 38.6578 24.2648 37.7648 23.1609 37.7648V37.7648Z" fill="url(#paint6_radial_29_6992)"/>
<path d="M38.7562 18.443C38.2849 18.3024 37.7904 18.2562 37.3012 18.3071C36.8119 18.3579 36.3375 18.5048 35.9051 18.7392C35.4728 18.9737 35.0909 19.2912 34.7814 19.6735C34.4719 20.0558 34.2409 20.4955 34.1016 20.9672L32.3086 27.6398L39.15 29.6648L41.2805 23.0906C41.857 21.1078 40.7391 19.0266 38.7562 18.443V18.443Z" fill="#04A287"/>
<path d="M32.3008 19.5469C32.3781 20.7141 30.332 23.3578 30.2758 23.5195C30.1633 23.7867 31.2813 23.8289 31.5274 23.5758C31.7734 23.3227 34.0375 21.0937 35.493 18.3094C36.1469 17.0578 37.6234 13.732 37.6234 13.732L35.5633 12.7266C35.5633 12.7266 34.9586 18.5062 33.5031 18.4852C32.0406 18.4641 32.0688 12.8672 32.0688 12.8672L28.7852 14.2312C28.7781 14.2312 32.2586 18.8227 32.3008 19.5469V19.5469Z" fill="url(#paint7_linear_29_6992)"/>
<path d="M37.7228 5.36484C35.8947 3.64922 33.4478 2.80547 30.9869 2.80547C29.8337 2.80547 28.6666 2.98828 27.5626 3.36094C26.5501 3.69844 23.365 5.26641 22.0009 7.98047C21.4314 9.11953 20.9814 10.3641 20.8689 11.6297C20.8056 12.3188 20.7986 13.5492 21.3541 14.1539C21.6001 14.4211 21.8955 14.5055 22.1767 14.5055C22.3244 14.5055 22.472 14.4844 22.6126 14.4562C23.3509 14.2945 25.2142 13.507 25.7697 13.4508C25.847 13.4437 25.9173 13.4438 25.9947 13.4438C27.1619 13.4438 28.0267 14.2805 28.2587 14.4492C28.7298 14.7867 29.2009 15.0539 29.7494 15.0539C30.2205 15.0539 30.7548 14.8641 31.4087 14.3578C32.2595 13.7039 32.4494 13.1977 33.2087 13.0641C33.2931 13.05 33.3916 13.0359 33.49 13.0359C34.0033 13.0359 34.7064 13.3031 35.5291 14.5828C36.2251 15.6656 37.0337 16.1227 37.7228 16.1227C38.1236 16.1227 38.4822 15.975 38.7564 15.7078C39.797 14.7094 41.8431 9.18984 37.7228 5.36484V5.36484Z" fill="url(#paint8_radial_29_6992)"/>
<defs>
<radialGradient id="paint0_radial_29_6992" cx="0" cy="0" r="1" gradientUnits="userSpaceOnUse" gradientTransform="translate(68.568 70.1297) scale(16.4053)">
<stop stop-color="#78909C"/>
<stop offset="0.562" stop-color="#617A86"/>
<stop offset="1" stop-color="#546E7A"/>
</radialGradient>
<radialGradient id="paint1_radial_29_6992" cx="0" cy="0" r="1" gradientUnits="userSpaceOnUse" gradientTransform="translate(21.4312 70.1297) scale(16.4053)">
<stop stop-color="#78909C"/>
<stop offset="0.562" stop-color="#617A86"/>
<stop offset="1" stop-color="#546E7A"/>
</radialGradient>
<linearGradient id="paint2_linear_29_6992" x1="24.388" y1="56.0876" x2="69.6763" y2="56.0876" gradientUnits="userSpaceOnUse">
<stop stop-color="#D8EB21"/>
<stop offset="0.441" stop-color="#D6E921"/>
<stop offset="0.606" stop-color="#B8C721"/>
<stop offset="0.804" stop-color="#ADBA21"/>
</linearGradient>
<linearGradient id="paint3_linear_29_6992" x1="71.7408" y1="2.26407" x2="25.4562" y2="99.052" gradientUnits="userSpaceOnUse">
<stop offset="0.195" stop-color="#FFD29C"/>
<stop offset="0.691" stop-color="#F9DDBD"/>
</linearGradient>
<radialGradient id="paint4_radial_29_6992" cx="0" cy="0" r="1" gradientUnits="userSpaceOnUse" gradientTransform="translate(47.4309 25.2281) scale(11.0531)">
<stop offset="0.364" stop-color="#00BFA5"/>
<stop offset="0.812" stop-color="#00B29A"/>
<stop offset="1" stop-color="#00AB94"/>
</radialGradient>
<linearGradient id="paint5_linear_29_6992" x1="19.6141" y1="31.5176" x2="40.4209" y2="31.5176" gradientUnits="userSpaceOnUse">
<stop offset="0.5" stop-color="#F9DDBD"/>
<stop offset="1" stop-color="#FFD29C"/>
</linearGradient>
<radialGradient id="paint6_radial_29_6992" cx="0" cy="0" r="1" gradientUnits="userSpaceOnUse" gradientTransform="translate(23.1645 39.7617) scale(1.99687)">
<stop stop-color="#78909C"/>
<stop offset="0.562" stop-color="#617A86"/>
<stop offset="1" stop-color="#546E7A"/>
</radialGradient>
<linearGradient id="paint7_linear_29_6992" x1="33.0273" y1="15.9683" x2="32.5483" y2="21.4656" gradientUnits="userSpaceOnUse">
<stop stop-color="#646464"/>
<stop offset="0.995" stop-color="#262626"/>
</linearGradient>
<radialGradient id="paint8_radial_29_6992" cx="0" cy="0" r="1" gradientUnits="userSpaceOnUse" gradientTransform="translate(27.3862 8.49867) scale(8.30672)">
<stop stop-color="#81D4FA"/>
<stop offset="0.36" stop-color="#5EB3E7"/>
<stop offset="0.775" stop-color="#3C92D3"/>
<stop offset="1" stop-color="#2F85CC"/>
</radialGradient>
</defs>
</svg>
