<svg width="118" height="118" viewBox="0 0 118 118" fill="none" xmlns="http://www.w3.org/2000/svg">
<path d="M68.7499 54.9979L76.0364 41.9687L63.1055 49.2552L59.1034 34.8887L55.1012 49.2552L42.0671 41.9687L49.2504 54.9979L34.8839 59L49.2504 63.0022L41.9639 76.0363L54.993 68.7498L58.9952 83.1163L62.9974 68.7498L76.0265 76.0363L68.74 63.1054L83.1065 59.1033L68.7499 54.9979ZM63.1055 59.8211C63.1055 59.9244 63.0023 60.0276 63.0023 60.1259C63.0023 60.2243 62.899 60.4308 62.899 60.5193C62.7958 60.6225 62.7958 60.7258 62.6925 60.9126C62.5893 61.0159 62.5893 61.1191 62.486 61.2174C62.3798 61.4057 62.2474 61.5778 62.0927 61.7288L61.9894 61.832C61.7829 62.0385 61.5961 62.1369 61.3699 62.3434C61.2667 62.4466 61.1634 62.4466 61.0651 62.5499C60.9668 62.6531 60.8242 62.7219 60.6767 62.7514H60.6718C60.5695 62.8186 60.4499 62.8545 60.3276 62.8547H60.2735C60.1703 62.8547 59.9687 62.9579 59.8802 62.9579C59.6737 62.9579 59.4869 63.0612 59.2607 63.0612H58.8674L58.7641 63.0661C58.5848 63.0664 58.4073 63.0296 58.2429 62.9579L58.2528 62.9629C58.1495 62.9629 57.9479 62.8596 57.8594 62.8596C57.7709 62.8596 57.5546 62.7564 57.4661 62.7564C57.3629 62.6531 57.1613 62.6531 57.0728 62.5499C56.9843 62.4466 56.8663 62.4466 56.7679 62.3434C56.5389 62.2043 56.3317 62.032 56.1534 61.832L56.0501 61.7288C55.8436 61.5223 55.7453 61.3354 55.5388 61.1093C55.4355 61.006 55.4355 60.9028 55.3323 60.8044C55.229 60.7061 55.229 60.4996 55.1258 60.4111C55.0586 60.3089 55.0228 60.1893 55.0225 60.0669V60.0129C55.0225 59.9096 54.9193 59.8064 54.9193 59.708C54.7791 59.1611 54.7808 58.5874 54.9242 58.0413L54.9193 58.0659C54.9193 57.9626 55.0225 57.8594 55.0225 57.761C55.0225 57.5545 55.1258 57.4562 55.229 57.2497C55.229 57.1464 55.3323 57.0432 55.3323 56.9449C55.4355 56.8416 55.4355 56.64 55.5388 56.5515C55.6616 56.4421 55.7647 56.3124 55.8436 56.168L55.8485 56.1582C56.055 55.9517 56.1534 55.7649 56.3599 55.6469C56.4631 55.5436 56.5664 55.4404 56.6647 55.4404C56.8712 55.3371 56.9695 55.2339 57.176 55.1355C57.2793 55.1355 57.2793 55.0323 57.3825 55.0323C57.589 54.929 57.7759 54.929 58.002 54.8258H58.2085C58.7555 54.6856 59.3292 54.6873 59.8753 54.8307L59.8507 54.8258C59.9539 54.8258 60.0572 54.929 60.1555 54.929C60.362 54.929 60.4604 55.0323 60.6669 55.1355C60.7701 55.2388 60.8734 55.2388 61.0602 55.342C61.1634 55.4453 61.2667 55.4453 61.365 55.5485C61.802 55.851 62.1816 56.229 62.486 56.6646L62.4959 56.6794C62.5991 56.7826 62.5991 56.8859 62.7024 56.9842C62.8056 57.0825 62.8744 57.2251 62.9039 57.3726V57.3775C62.9679 57.4759 63.0072 57.5939 63.0072 57.7217V57.7758C63.0072 57.879 63.1104 57.9823 63.1104 58.1691C63.1793 58.3756 63.2186 58.6116 63.2186 58.8525L63.2137 58.9951V58.9902L63.2186 59.1623C63.2198 59.3937 63.1798 59.6234 63.1006 59.8408L63.1055 59.826V59.8211ZM57.0531 28.6298C57.0531 27.0909 57.0531 25.6503 56.9499 24.4211C57.4612 25.5519 58.0807 26.7811 58.592 27.8087L60.6472 31.5011H62.9039V21.8546H60.8488V24.7259C60.8078 26.1064 60.8818 27.4878 61.07 28.8559L61.0553 28.7281C60.5872 27.5448 60.0453 26.392 59.4328 25.2766L59.5164 25.4438L57.4612 21.8546H54.8947V31.5011H56.9499V28.6298H57.0531ZM29.9623 58.1789C29.7558 59.3098 29.5689 60.4357 29.4509 61.5665C29.3477 60.4357 29.1461 59.413 28.9396 58.2822L28.0989 54.1817H25.7389L24.9522 58.1839C24.7457 59.413 24.4409 60.5439 24.3327 61.5714C24.1262 60.5439 23.9394 59.3147 23.7132 58.1839L22.9806 54.1817H20.6206L22.8774 63.8282H25.2374L26.1617 59.6195C26.3874 58.6785 26.5549 57.7245 26.6632 56.7629L26.673 56.6449C26.7763 57.7758 26.9779 58.7001 27.0664 59.6244L27.8874 63.8331H30.2474L32.7107 54.1866H30.744L29.9623 58.1789ZM93.6823 59.7179H97.1731V57.9774H93.6823V55.9222H97.3747V54.1768H91.4255V63.8233H97.5812V62.0828H93.6823V59.7179ZM59.8163 91.0124C58.5871 90.5011 57.9676 90.2946 57.9676 89.68C57.9676 89.1687 58.3609 88.7557 59.4033 88.7557C60.1457 88.7852 60.8488 88.9278 61.5076 89.1638L61.4584 89.149L61.9698 87.4085C61.1896 87.0968 60.361 86.9237 59.5213 86.8972H59.5065C57.2498 86.8972 55.8141 88.1264 55.8141 89.7685C55.8141 91.2042 56.8417 92.0253 58.4789 92.6399C59.6098 93.0332 60.1211 93.3577 60.1211 93.9723C60.1211 94.5869 59.6098 94.9999 58.5822 94.9999C57.7096 94.982 56.8523 94.7669 56.0747 94.3705L56.1091 94.3853L55.7158 96.2339C56.5024 96.6224 57.4268 96.8534 58.4003 96.8534H58.4691H58.4642C61.129 96.8534 62.3631 95.521 62.3631 93.8739C62.3975 92.5563 61.5617 91.6319 59.8163 91.0124V91.0124Z" fill="white"/>
<path d="M59 0C26.4172 0 0 26.4172 0 59C0 91.5827 26.4172 118 59 118C91.5827 118 118 91.5827 118 59C117.956 26.432 91.568 0.04425 59.0049 0H59ZM108.457 64.4378C105.831 87.5117 87.7822 105.669 64.9836 108.432L64.7427 108.457L58.9951 98.5005L53.2475 108.452C30.2867 105.649 12.2867 87.615 9.558 64.8803L9.53342 64.6443L19.1799 59L9.53342 53.4589C12.2818 30.4883 30.2867 12.449 53.0017 9.67108L53.2426 9.6465L58.9902 19.6027L64.7377 9.65142C87.7723 12.4392 105.821 30.5915 108.427 53.4343L108.447 53.6654L99.1102 59.1032L108.457 64.4378Z" fill="black"/>
</svg>
