<svg width="90" height="90" viewBox="0 0 90 90" fill="none" xmlns="http://www.w3.org/2000/svg">
<path d="M33.7077 53.9475C32.2577 54.7475 28.0677 57.145 25.5027 59.4575C24.0127 60.8 24.2077 61.7775 24.6802 64.135L24.7227 64.3475C25.1877 66.6775 29.9877 81.945 30.9302 84.9275L33.8502 84.2C33.8852 82.6475 33.9577 77.1975 33.4002 73.6875C33.2152 72.5125 33.0277 71.0975 32.8577 69.815C32.7277 68.7509 32.5744 67.6898 32.3977 66.6325C32.2052 65.6425 32.5227 65.0075 33.4252 64.57C34.8824 63.8643 36.3527 63.1858 37.8352 62.535L33.7077 53.9475V53.9475ZM60.3902 67.4675C59.0577 67.305 57.7977 67.1475 57.1952 67.11C56.1877 67.0475 55.6502 66.58 55.4577 65.595C55.1418 64.0069 54.8543 62.4133 54.5952 60.815L45.2452 62.6475C45.6552 64.255 46.9227 68.91 48.5152 71.9775C49.4377 73.755 50.4327 73.8125 52.8302 73.95L53.0502 73.9625C55.4252 74.105 71.4052 73.2975 74.5327 73.1375L74.5652 70.125C73.0727 69.7025 67.8177 68.26 64.2802 67.9125C62.9814 67.7835 61.6846 67.6352 60.3902 67.4675V67.4675Z" fill="#FFDC5D"/>
<path d="M70.2753 74.425L69.8603 73.66C69.8475 73.6311 69.8409 73.5999 69.8408 73.5683C69.8408 73.5367 69.8473 73.5054 69.86 73.4765C69.8727 73.4476 69.8913 73.4216 69.9146 73.4003C69.9379 73.3789 69.9654 73.3627 69.9953 73.3525C70.3953 73.215 71.2028 72.845 71.4853 72.6975C71.2403 73.2575 70.9603 74.1525 70.6478 74.4225C70.5278 74.525 70.3378 74.57 70.2753 74.425V74.425Z" fill="#8899A6"/>
<path d="M76.325 68.49C76 68.23 75.2575 68.1025 74.7925 68.0575C74.1718 68.0127 73.5489 68.0069 72.9275 68.04C72.6494 68.0503 72.3726 68.0838 72.1 68.14C71.6375 68.275 71.435 68.4675 71.325 68.6025C71.1925 68.765 71.18 68.9375 71.21 69.025C71.3325 69.3825 71.92 70 72.175 70.5875C72.2611 70.763 72.3015 70.9573 72.2925 71.1525C72.23 71.7975 71.4075 72.735 70.7925 73.43C70.4225 73.8475 70.1275 74.1775 70.115 74.305C70.1054 74.4344 70.1359 74.5636 70.2025 74.675V74.68C70.37 74.9875 70.7375 75.3075 70.9875 76.1475C71.15 76.69 71.91 79.16 71.91 79.16C72.0925 79.79 72.335 79.9425 72.4375 80.2825C72.65 80.975 73.025 82.835 73.21 83.4225C73.2707 83.6481 73.3948 83.8516 73.5676 84.0089C73.7404 84.1662 73.9547 84.2707 74.185 84.31C74.53 84.3575 74.7275 84.2775 74.7275 84.2775C74.7275 84.2775 75.5325 83.915 76.065 80.8975C76.45 78.7175 76.11 78.38 75.82 75.105C75.535 71.825 76.325 68.49 76.325 68.49V68.49Z" fill="#BE1931"/>
<path d="M75.6522 73.36C75.1047 73.135 73.8522 72.31 73.5022 71.4225C73.1847 70.62 72.9697 68.4525 72.9297 68.04C73.6022 67.98 74.6347 68.025 74.9672 68.055C75.4047 68.0975 75.9097 68.1325 76.2122 68.39L76.3272 68.49C76.0696 70.1087 75.8446 71.7323 75.6522 73.36V73.36Z" fill="#DD2E44"/>
<path d="M70.8422 75.8425C70.7283 75.843 70.6176 75.8047 70.5285 75.7338C70.4394 75.6629 70.3772 75.5637 70.3521 75.4526C70.327 75.3415 70.3406 75.2252 70.3906 75.1229C70.4407 75.0206 70.5241 74.9384 70.6271 74.89L71.4247 74.5125C71.4841 74.4824 71.549 74.4644 71.6156 74.4597C71.6821 74.4551 71.7489 74.4637 71.812 74.4853C71.8751 74.5068 71.9333 74.5407 71.9831 74.5851C72.0329 74.6294 72.0734 74.6832 72.102 74.7435C72.1307 74.8037 72.1471 74.869 72.1501 74.9356C72.1532 75.0022 72.1429 75.0688 72.1198 75.1313C72.0968 75.1939 72.0614 75.2513 72.0159 75.3C71.9704 75.3487 71.9155 75.3878 71.8547 75.415L71.0572 75.7925C70.9903 75.8256 70.9167 75.8427 70.8422 75.8425ZM71.3522 77.3025C71.2463 77.3026 71.1432 77.269 71.0578 77.2065C70.9723 77.144 70.9091 77.0559 70.8772 76.955C70.857 76.8925 70.8494 76.8266 70.8549 76.7611C70.8603 76.6956 70.8787 76.6319 70.9089 76.5735C70.9391 76.5152 70.9806 76.4634 71.0309 76.4212C71.0812 76.379 71.1394 76.3471 71.2022 76.3275L72.0871 76.045C72.2119 76.0102 72.3454 76.0251 72.4594 76.0867C72.5733 76.1483 72.659 76.2517 72.6982 76.3752C72.7374 76.4987 72.7272 76.6326 72.6696 76.7487C72.612 76.8648 72.5117 76.954 72.3897 76.9975L71.5046 77.28C71.4552 77.295 71.4038 77.3025 71.3522 77.3025V77.3025ZM71.7822 78.79C71.6668 78.7905 71.5548 78.7509 71.4654 78.6779C71.376 78.6049 71.3148 78.5032 71.2922 78.39C71.2663 78.2601 71.2927 78.1253 71.3658 78.0148C71.4388 77.9043 71.5525 77.8271 71.6822 77.8L72.5121 77.63C72.5766 77.6158 72.6432 77.6147 72.708 77.6267C72.7729 77.6388 72.8347 77.6637 72.8897 77.7001C72.9447 77.7365 72.9919 77.7835 73.0284 77.8385C73.0649 77.8935 73.09 77.9552 73.1021 78.02C73.128 78.1499 73.1016 78.2847 73.0285 78.3952C72.9555 78.5057 72.8418 78.5829 72.7121 78.61L71.8822 78.78C71.8472 78.785 71.8147 78.79 71.7822 78.79ZM78.2572 69.1075C78.2422 69.04 78.1947 68.7875 78.0197 68.4775C77.9622 68.3725 77.8272 68.34 77.6922 68.325C77.5247 68.3025 76.2922 68.125 76.2697 68.375C76.2697 68.375 76.2647 68.745 76.0897 69C75.9147 69.255 75.7947 69.88 75.7497 70.3475C75.7047 70.8125 75.5047 72.565 75.5497 73.795C75.5947 75.025 75.9747 77.2525 75.9947 77.995C76.0122 78.7375 75.9947 79.8925 75.8372 80.7475C75.6797 81.6025 75.5097 82.3625 75.3797 82.8325C75.2511 83.3491 75.0309 83.8385 74.7297 84.2775C74.7297 84.2775 75.7022 84.2125 76.4472 82.7725C77.0347 81.6375 77.3647 80.545 77.4872 79.48C77.4972 79.4 77.7497 76.56 77.8722 75.14C77.9597 74.1025 78.1097 72.445 78.1097 72.445C78.2972 70.48 78.3422 69.4825 78.2572 69.1075V69.1075Z" fill="#CCD6DD"/>
<path d="M28.5951 81.29L29.2101 80.675C29.2344 80.6546 29.2626 80.6395 29.293 80.6305C29.3234 80.6216 29.3554 80.619 29.3868 80.623C29.4183 80.627 29.4486 80.6375 29.4758 80.6537C29.5031 80.67 29.5266 80.6917 29.5451 80.7175C29.7901 81.0625 30.3751 81.7325 30.5976 81.96C29.9901 81.885 29.0526 81.87 28.7051 81.6475C28.5701 81.56 28.4726 81.39 28.5951 81.29Z" fill="#8899A6"/>
<path d="M36.002 85.405C36.1595 85.02 36.0695 84.2725 35.982 83.8125C35.8475 83.2052 35.6763 82.6066 35.4695 82.02C35.3801 81.7566 35.2697 81.5008 35.1395 81.255C34.9894 80.9853 34.7561 80.7714 34.4745 80.645C34.282 80.5625 34.112 80.6 34.037 80.655C33.7295 80.875 33.302 81.6125 32.8145 82.025C32.6703 82.1574 32.4948 82.2512 32.3045 82.2975C31.6695 82.42 30.537 81.9 29.6945 81.505C29.1895 81.27 28.7895 81.08 28.6645 81.105C28.538 81.1324 28.4228 81.1978 28.3345 81.2925L28.3295 81.295H28.332C28.0845 81.5425 27.882 81.9875 27.147 82.465C26.6745 82.7725 24.5195 84.205 24.5195 84.205C23.967 84.5575 23.8895 84.835 23.5945 85.03C22.9895 85.43 21.3145 86.3175 20.802 86.6625C20.6643 86.7477 20.5448 86.8594 20.4506 86.9912C20.3563 87.1229 20.2891 87.272 20.2528 87.4299C20.2165 87.5877 20.2119 87.7512 20.2392 87.9109C20.2666 88.0705 20.3253 88.2232 20.412 88.36C20.412 88.36 20.987 89.03 24.032 88.6825C26.232 88.4325 26.457 88.01 29.517 86.8025C32.577 85.595 36.002 85.405 36.002 85.405V85.405Z" fill="#BE1931"/>
<path d="M31.1426 86.1425C31.2026 85.5525 31.6376 84.12 32.3901 83.53C33.0676 83 35.0876 82.175 35.4701 82.02C35.7201 82.6475 35.9701 83.65 36.0326 83.9775C36.1151 84.41 36.2276 84.9025 36.0651 85.2675L36.0026 85.4075C36.0026 85.405 32.5526 85.8675 31.1426 86.1425V86.1425Z" fill="#DD2E44"/>
<path d="M28.463 83.2525C28.3925 83.2529 28.3228 83.2381 28.2585 83.2092C28.1943 83.1803 28.137 83.138 28.0905 83.085L27.5005 82.4275C27.4568 82.3784 27.4232 82.3212 27.4017 82.2592C27.3801 82.1971 27.371 82.1314 27.3748 82.0658C27.3787 82.0003 27.3954 81.9361 27.424 81.877C27.4526 81.8178 27.4926 81.7649 27.5417 81.7213C27.5908 81.6776 27.648 81.644 27.7101 81.6225C27.7721 81.6009 27.8378 81.5918 27.9034 81.5956C27.969 81.5994 28.0332 81.6162 28.0923 81.6448C28.1514 81.6734 28.2043 81.7134 28.248 81.7625L28.8355 82.42C28.8995 82.492 28.9415 82.5809 28.9562 82.6761C28.9709 82.7713 28.9578 82.8688 28.9184 82.9567C28.8791 83.0447 28.8152 83.1194 28.7344 83.1718C28.6536 83.2243 28.5593 83.2523 28.463 83.2525V83.2525ZM27.1405 84.2675C27.059 84.2672 26.9788 84.247 26.9069 84.2087C26.835 84.1703 26.7736 84.115 26.728 84.0475L26.2055 83.2775C26.1642 83.2235 26.1343 83.1617 26.1177 83.0958C26.1012 83.0299 26.0982 82.9613 26.109 82.8942C26.1198 82.8271 26.1442 82.763 26.1806 82.7056C26.2171 82.6482 26.2648 82.5989 26.321 82.5606C26.3771 82.5224 26.4405 82.4959 26.5072 82.4829C26.5739 82.47 26.6425 82.4707 26.7089 82.4852C26.7753 82.4996 26.8381 82.5275 26.8934 82.567C26.9487 82.6065 26.9953 82.6569 27.0305 82.715L27.553 83.485C27.6044 83.5601 27.6343 83.6478 27.6396 83.7387C27.6448 83.8296 27.6252 83.9202 27.5827 84.0007C27.5403 84.0812 27.4767 84.1486 27.3987 84.1956C27.3208 84.2426 27.2315 84.2675 27.1405 84.2675V84.2675ZM25.7155 85.08C25.6246 85.0802 25.5354 85.0557 25.4574 85.009C25.3794 84.9623 25.3157 84.8952 25.273 84.815L24.8755 84.0675C24.8446 84.0094 24.8255 83.9458 24.8192 83.8803C24.8129 83.8148 24.8196 83.7487 24.8389 83.6858C24.8582 83.6229 24.8896 83.5644 24.9315 83.5136C24.9734 83.4629 25.0249 83.4209 25.083 83.39C25.1411 83.3591 25.2047 83.34 25.2702 83.3338C25.3357 83.3275 25.4018 83.3342 25.4647 83.3534C25.5276 83.3727 25.5861 83.4042 25.6369 83.4461C25.6876 83.4879 25.7296 83.5394 25.7605 83.5975L26.158 84.345C26.1986 84.4213 26.2187 84.5068 26.2165 84.5932C26.2142 84.6795 26.1896 84.7639 26.145 84.8379C26.1004 84.9119 26.0374 84.9732 25.9622 85.0156C25.8869 85.058 25.8019 85.0802 25.7155 85.08V85.08ZM35.9605 87.4325C36.0205 87.4 36.2505 87.2825 36.498 87.0275C36.5805 86.9425 36.5755 86.805 36.553 86.67C36.5255 86.5025 36.3455 85.2725 36.1005 85.32C36.1005 85.32 35.743 85.42 35.4505 85.325C35.158 85.23 34.523 85.2925 34.063 85.38C33.603 85.47 31.868 85.775 30.7005 86.1675C29.533 86.56 27.508 87.5575 26.8005 87.7875C26.093 88.015 24.9805 88.325 24.1155 88.4175C23.2505 88.51 22.473 88.5625 21.988 88.5725C21.4561 88.5964 20.9243 88.5245 20.418 88.36C20.418 88.36 20.758 89.275 22.348 89.58C23.603 89.8225 24.7455 89.8275 25.8005 89.6425C25.8805 89.6275 28.6755 89.065 30.0705 88.7775C31.0905 88.5675 32.7205 88.24 32.7205 88.24C34.6555 87.8625 35.6255 87.6225 35.9605 87.4325V87.4325Z" fill="#CCD6DD"/>
<path d="M32.7104 53.665C34.5554 52.71 40.6504 49.695 44.8154 49.265C45.1954 49.225 48.6304 59.025 48.1679 59.1725C46.2604 59.7875 41.4654 61.415 37.8329 63.3425C37.6561 63.4434 37.4485 63.4763 37.2491 63.4348C37.0498 63.3934 36.8724 63.2805 36.7504 63.1175C35.6729 61.605 32.8779 57.475 32.2554 54.5275C32.1829 54.1825 32.3754 53.8375 32.7104 53.665Z" fill="#A0041E"/>
<path d="M44.7051 63.41C44.2151 61.4225 42.7201 54.8825 43.2401 50.7875C43.2876 50.4125 52.4652 49.075 52.4652 49.075C52.9027 49.0225 53.9651 56.785 54.9776 60.7125C55.0851 61.1275 54.8951 61.5475 54.5251 61.7C52.8576 62.3875 48.3401 64.1225 45.4176 64.0425C45.0776 64.0325 44.7951 63.7675 44.7051 63.41V63.41Z" fill="#BE1931"/>
<path d="M37.0029 28.1125C36.7179 29.7125 37.6504 31.69 41.3479 32.465C45.0454 33.24 47.7329 33.1475 49.6579 33.01C51.2904 32.8925 51.0654 35.39 51.4354 38.005C51.8054 40.63 52.0379 44.0525 51.8904 44.5875C51.6404 45.49 50.0854 45.785 50.7929 47.395C51.5004 49.0025 51.6154 49.8825 53.1479 49.37C54.6804 48.8575 56.2029 48.3025 56.6379 47.4725C57.0729 46.6425 55.5629 44.81 55.5404 43.815C55.5229 43.08 56.2729 33.885 56.2279 32.8025C56.1729 31.4825 56.1404 29.675 54.0179 28.8475C51.8954 28.02 43.7479 25.9125 41.5879 25.4925C39.3079 25.05 37.3804 25.99 37.0029 28.1125V28.1125Z" fill="#FFDC5D"/>
<path d="M41.2379 16.53C42.0691 15.4655 42.6354 14.2188 42.8904 12.8925C43.9129 7.685 40.9054 2.71 36.1704 1.7825C31.4379 0.852498 24.9629 4.355 25.1079 9.66C25.2504 14.9275 28.1804 22.695 32.5904 21.385C33.7554 21.04 34.9204 20.66 36.0279 20.2C36.5004 20.76 36.8404 22.9025 36.6454 24.7375C36.1454 29.4125 42.5979 29.9 43.0929 25.2175C43.4854 21.5125 41.1729 19.1575 41.2379 16.53Z" fill="#FFDC5D"/>
<path d="M54.7579 6.83251C51.4804 6.79751 48.5179 3.43251 45.1454 5.58001C44.5859 5.92679 44.0777 6.35005 43.6354 6.83751C43.0504 5.06001 42.0454 3.42001 40.3879 2.34251C38.7679 1.28751 36.7804 0.500005 34.9029 0.712505C23.4604 2.00251 24.0804 10.2775 24.9504 11.0525C25.8204 11.8275 28.1979 9.62251 29.9554 9.38001C30.7754 9.26501 32.5579 9.24751 33.5029 10.605C34.2679 11.705 34.5304 13.93 34.5304 13.93C34.5304 13.93 34.5604 11.4 34.6329 10.51C34.7004 9.68001 35.5229 8.72501 36.6354 9.95501C37.6029 11.025 37.1104 13.125 36.4379 13.345C35.9204 13.515 36.7604 14.7825 38.0579 15.7475C40.4229 17.5075 42.2604 16.8175 42.5229 16.72C42.7879 16.6225 43.6854 16.425 44.1429 13.3875C44.2079 12.965 44.2529 12.5125 44.2804 12.045C45.2154 12.855 46.7479 13.8175 48.8479 13.8325C51.1704 13.85 55.3954 12.6675 57.8129 9.78001C59.6729 7.55751 60.4379 3.89251 60.4379 3.89251C59.4504 5.73751 57.2304 6.86001 54.7579 6.83251V6.83251Z" fill="#FFAC33"/>
<path d="M49.0602 27.3475C47.2402 23.09 44.6027 20.855 40.9877 22.0625C37.7752 23.1375 36.1827 24.94 35.2352 26.9625C34.7752 27.945 32.9827 31.795 34.0702 34.295C36.1977 39.185 39.6777 48.9525 40.2902 51.9425C40.2902 51.9425 41.0952 52.7575 46.2977 52.1025C50.8552 51.5275 53.1277 51.0925 53.1277 51.0925C52.4352 44.6075 51.9977 34.225 49.0602 27.3475V27.3475Z" fill="#DD2E44"/>
<path d="M43.005 27.6675C41.5625 26.7375 39.2575 26.84 36.995 30.125C35.3094 32.5418 33.9886 35.1936 33.075 37.995C32.5225 39.6325 30.1825 38.395 27.485 37.69C24.7775 36.98 21.3475 35.81 20.8875 35.4475C20.11 34.835 20.4575 33.2025 18.6025 33.2325C16.7475 33.265 15.845 33.0175 15.72 34.72C15.595 36.4225 15.5125 38.13 16.145 38.8925C16.7775 39.655 19.175 38.9325 20.155 39.315C20.8775 39.5975 29.5275 44.0775 30.6 44.475C31.91 44.96 33.6825 45.665 35.3525 43.935C37.0225 42.205 42.4 35.13 43.69 33.195C45.0475 31.16 44.9175 28.9 43.005 27.6675V27.6675Z" fill="#FFDC5D"/>
</svg>
