<svg width="21" height="21" viewBox="0 0 21 21" fill="none" xmlns="http://www.w3.org/2000/svg">
<path d="M18.5 11H15.5M6.5 4C6.76522 4 7.01957 4.10536 7.20711 4.29289C7.39464 4.48043 7.5 4.73478 7.5 5V7C7.5 7.26522 7.39464 7.51957 7.20711 7.70711C7.01957 7.89464 6.76522 8 6.5 8C6.23478 8 5.98043 7.89464 5.79289 7.70711C5.60536 7.51957 5.5 7.26522 5.5 7V5C5.5 4.73478 5.60536 4.48043 5.79289 4.29289C5.98043 4.10536 6.23478 4 6.5 4V4ZM18.5 6H7.5H18.5ZM5.5 6H2.5H5.5ZM6.5 14C6.76522 14 7.01957 14.1054 7.20711 14.2929C7.39464 14.4804 7.5 14.7348 7.5 15V17C7.5 17.2652 7.39464 17.5196 7.20711 17.7071C7.01957 17.8946 6.76522 18 6.5 18C6.23478 18 5.98043 17.8946 5.79289 17.7071C5.60536 17.5196 5.5 17.2652 5.5 17V15C5.5 14.7348 5.60536 14.4804 5.79289 14.2929C5.98043 14.1054 6.23478 14 6.5 14ZM18.5 16H7.5H18.5ZM5.5 16H2.5H5.5ZM14.5 9C14.7652 9 15.0196 9.10536 15.2071 9.29289C15.3946 9.48043 15.5 9.73478 15.5 10V12C15.5 12.2652 15.3946 12.5196 15.2071 12.7071C15.0196 12.8946 14.7652 13 14.5 13C14.2348 13 13.9804 12.8946 13.7929 12.7071C13.6054 12.5196 13.5 12.2652 13.5 12V10C13.5 9.73478 13.6054 9.48043 13.7929 9.29289C13.9804 9.10536 14.2348 9 14.5 9V9ZM13.5 11H2.5H13.5Z" stroke="#1F2933" stroke-linecap="round" stroke-linejoin="round"/>
</svg>
