<svg width="86" height="86" viewBox="0 0 86 86" fill="none" xmlns="http://www.w3.org/2000/svg">
<path d="M43 80.625C33.0212 80.625 23.4512 76.6609 16.3951 69.6049C9.33905 62.5488 5.375 52.9788 5.375 43C5.375 33.0212 9.33905 23.4512 16.3951 16.3951C23.4512 9.33905 33.0212 5.375 43 5.375C52.9788 5.375 62.5488 9.33905 69.6049 16.3951C76.6609 23.4512 80.625 33.0212 80.625 43C80.625 52.9788 76.6609 62.5488 69.6049 69.6049C62.5488 76.6609 52.9788 80.625 43 80.625ZM43 86C54.4043 86 65.3415 81.4697 73.4056 73.4056C81.4697 65.3415 86 54.4043 86 43C86 31.5957 81.4697 20.6585 73.4056 12.5944C65.3415 4.53034 54.4043 0 43 0C31.5957 0 20.6585 4.53034 12.5944 12.5944C4.53034 20.6585 0 31.5957 0 43C0 54.4043 4.53034 65.3415 12.5944 73.4056C20.6585 81.4697 31.5957 86 43 86V86Z" fill="#991B1B"/>
<path d="M23.0319 66.8274C23.6492 67.1837 24.3827 67.2803 25.0712 67.0959C25.7596 66.9114 26.3466 66.461 26.703 65.8438C28.3538 62.9824 30.7292 60.6065 33.5902 58.9552C36.4512 57.3039 39.6967 56.4356 43 56.4375C49.9607 56.4375 56.0398 60.2161 59.297 65.8438C59.6559 66.456 60.2425 66.9014 60.9286 67.0828C61.6147 67.2642 62.3447 67.1668 62.9593 66.812C63.5739 66.4571 64.0232 65.8736 64.2091 65.1887C64.3951 64.5038 64.3025 63.7732 63.9518 63.1563C61.8293 59.4779 58.7754 56.4234 55.0973 54.3004C51.4193 52.1773 47.2469 51.0606 43 51.0625C38.7534 51.0617 34.5815 52.1789 30.9036 54.3018C27.2257 56.4248 24.1716 59.4786 22.0483 63.1563C21.6919 63.7735 21.5953 64.5071 21.7798 65.1955C21.9643 65.884 22.4147 66.471 23.0319 66.8274ZM37.625 34.9375C37.625 39.388 35.217 43 32.25 43C29.283 43 26.875 39.388 26.875 34.9375C26.875 30.487 29.283 26.875 32.25 26.875C35.217 26.875 37.625 30.487 37.625 34.9375ZM59.125 34.9375C59.125 39.388 56.717 43 53.75 43C50.783 43 48.375 39.388 48.375 34.9375C48.375 30.487 50.783 26.875 53.75 26.875C56.717 26.875 59.125 30.487 59.125 34.9375Z" fill="#991B1B"/>
</svg>
