<svg width="90" height="90" viewBox="0 0 90 90" fill="none" xmlns="http://www.w3.org/2000/svg">
<path d="M53.1393 17.877C52.0319 17.666 47.2682 15.7852 47.2682 13.7812C47.2682 11.8301 45.5455 11.7246 45.1061 11.7246C44.5084 11.7246 44.2096 11.3027 44.2096 10.7051C44.2096 3.09375 39.3932 5.2207 39.1295 5.2207C38.6373 5.2207 39.1295 4.16602 38.7076 4.16602C38.567 4.16602 38.444 4.14844 38.3209 4.14844C37.1256 5.41406 36.4401 7.17187 36.4401 9.36914L36.4576 10.582V10.5996C36.4401 10.8281 35.6666 13.2012 35.1744 14.2383C34.6119 15.3984 35.3502 15.6445 36.5455 15.6797L36.5807 17.6484C36.5807 18.0176 37.6178 17.9648 37.9694 17.7715C38.233 17.6309 38.567 17.7363 38.7076 18C38.8483 18.2637 38.7428 18.5977 38.4791 18.7383C38.1803 18.8965 37.5826 19.002 37.1608 19.0723C36.9322 19.1074 36.774 19.3535 36.8268 19.582C37.5123 21.8848 39.5338 22.834 42.1705 23.168V25.9453C42.1705 26.877 43.6822 27.6328 45.5455 27.6328C47.4088 27.6328 48.9205 26.877 48.9205 25.9453C48.9205 25.8398 48.903 25.7344 48.8678 25.6465V22.5879C50.9596 21.5859 52.2955 19.793 53.1393 17.877V17.877Z" fill="#FFD3B6"/>
<path d="M39.8848 11.4258C39.8496 11.0215 39.5156 10.7227 39.1113 10.7227C38.707 10.7227 38.373 11.0391 38.3379 11.4258H38.3203V12.5156C38.3203 12.9375 38.6719 13.2891 39.0937 13.2891C39.5156 13.2891 39.8672 12.9375 39.8672 12.5156L39.8848 11.4258Z" fill="#2B3B47"/>
<path d="M38.9531 11.4609C38.9531 11.3555 38.8652 11.2852 38.7598 11.2852C38.6543 11.2852 38.584 11.3555 38.5664 11.4609V11.7246C38.5664 11.8301 38.6543 11.918 38.7598 11.918C38.8652 11.918 38.9531 11.8301 38.9531 11.7246V11.4609Z" fill="white"/>
<path d="M37.8458 9.05273C37.8458 9.05273 37.881 9.05273 37.9689 9.03516C38.0392 9.03516 38.1446 9.01758 38.2677 9.01758C38.3907 9.01758 38.5314 9 38.6896 9C38.8478 9 39.0235 9.01758 39.1817 9.03516C39.3575 9.05273 39.5157 9.08789 39.6915 9.12305C39.7794 9.14063 39.8497 9.17578 39.92 9.19336C39.9903 9.21094 40.0606 9.24609 40.131 9.28125C40.2013 9.29883 40.254 9.35156 40.3067 9.38672C40.3595 9.42187 40.3946 9.45703 40.4298 9.47461C40.5001 9.52734 40.5353 9.5625 40.5353 9.5625C40.6407 9.66797 40.6583 9.82617 40.5528 9.94922C40.4649 10.0547 40.3067 10.0723 40.2013 9.98437L40.1485 9.94922C40.1485 9.94922 40.131 9.93164 40.0782 9.89648C40.0606 9.87891 40.0431 9.86133 40.0079 9.84375C39.9728 9.82617 39.9376 9.80859 39.8849 9.79102C39.8321 9.77344 39.797 9.75586 39.7267 9.73828C39.6739 9.7207 39.6036 9.70312 39.5509 9.70312C39.4278 9.68555 39.2872 9.66797 39.129 9.66797C38.9884 9.66797 38.8302 9.66797 38.6896 9.68555C38.5489 9.70312 38.4259 9.70312 38.3028 9.7207C38.1974 9.73828 38.0919 9.75586 38.0392 9.75586C37.9688 9.77344 37.9337 9.77344 37.9337 9.77344H37.9161C37.7052 9.80859 37.5118 9.68555 37.4767 9.47461C37.4415 9.26367 37.5646 9.07031 37.7755 9.03516C37.8106 9.05273 37.8282 9.05273 37.8458 9.05273V9.05273Z" fill="#E5AB83"/>
<path d="M45.4219 16.0664C45.1758 16.0664 45 15.873 45 15.6445C45 15.416 45.1934 15.2227 45.4219 15.2227C46.1953 15.2227 46.8281 14.5898 46.8281 13.8164C46.8281 13.043 46.1953 12.4102 45.4219 12.4102C45.1758 12.4102 45 12.2168 45 11.9883C45 11.7598 45.1934 11.5664 45.4219 11.5664C46.6699 11.5664 47.6894 12.5859 47.6894 13.834C47.6894 15.082 46.6699 16.0664 45.4219 16.0664V16.0664Z" fill="#EDC0A2"/>
<path d="M22.782 83.7949C22.0613 83.7949 21.323 83.5664 20.6902 83.0918C19.5125 82.248 18.9675 80.8418 19.284 79.4531C19.3191 79.2598 19.5125 79.1543 19.7058 79.1895C19.8992 79.2246 20.0047 79.418 19.9695 79.6113C19.7234 80.7187 20.1453 81.8437 21.0945 82.5293C22.0437 83.2148 23.239 83.2676 24.2058 82.6875C24.364 82.582 24.5925 82.6348 24.6804 82.8105C24.7859 82.9687 24.7332 83.1973 24.5574 83.2852C24.0125 83.6191 23.3972 83.7949 22.782 83.7949V83.7949Z" fill="#2B3B47"/>
<path d="M24.5566 83.2852C23.9941 83.6191 23.3789 83.7774 22.7637 83.7774C22.043 83.7774 21.3047 83.5488 20.6719 83.0742C19.4941 82.2305 18.9492 80.8242 19.2656 79.4355C19.3008 79.2422 19.4941 79.1367 19.6875 79.1719C19.8809 79.207 19.9863 79.4004 19.9512 79.5937C19.8281 80.1562 19.8809 80.7188 20.0742 81.2285C20.8125 81.123 21.4277 80.8418 21.0762 80.0859C19.7578 77.2734 19.6875 79.9453 16.6992 80.0156C16.0137 80.0156 15.0469 79.9102 13.6406 79.6113C11.2852 79.1191 9.7207 77.748 8.82422 79.207C8.89453 79.2773 9.05273 79.4004 9.29883 79.6113C9.45703 79.7519 9.65039 79.9102 9.87891 80.1035C10.1074 80.2969 10.3711 80.4902 10.6523 80.7012C10.793 80.8066 10.9512 80.9297 11.1094 81.0352C11.2676 81.1406 11.4434 81.2637 11.6016 81.3867C11.9355 81.6328 12.3047 81.8789 12.6738 82.1426L12.8145 82.248L12.832 82.2656L12.8672 82.2832L12.9375 82.3359C13.043 82.4063 13.1309 82.459 13.2363 82.5293C13.4297 82.6523 13.6406 82.793 13.834 82.916C14.2383 83.1797 14.6426 83.4434 15.0645 83.7246C15.4687 83.9883 15.8906 84.2168 16.3125 84.4453C16.7168 84.6738 17.1387 84.9199 17.543 85.166C17.9473 85.4121 18.334 85.6231 18.7031 85.8516C19.0547 86.0801 19.3887 86.3086 19.7051 86.5195C20.9355 87.3457 21.7617 87.8906 21.7617 87.8906C22.3066 87.1348 23.2559 85.8164 23.7832 85.0781C24.293 84.3926 24.6621 83.7246 24.6445 83.1973C24.6094 83.2676 24.5918 83.2676 24.5566 83.2852V83.2852Z" fill="#76DFFF"/>
<path d="M8.77148 79.1895C8.77148 79.1895 8.96484 79.3477 9.28125 79.6289C9.43945 79.7695 9.63281 79.9277 9.86133 80.1211C10.0898 80.3145 10.3535 80.5078 10.6348 80.7188C10.7754 80.8242 10.9336 80.9473 11.0918 81.0527C11.25 81.1582 11.4258 81.2813 11.584 81.4043C11.918 81.6504 12.2871 81.8965 12.6562 82.1602L12.7969 82.2656L12.8145 82.2832H12.832C12.832 82.2832 12.8145 82.2656 12.832 82.2832L12.8672 82.3008L12.9375 82.3535C13.043 82.4238 13.1309 82.4766 13.2363 82.5469C13.4297 82.6699 13.6406 82.8105 13.834 82.9336C14.2383 83.1973 14.6426 83.4609 15.0645 83.7422C15.4687 84.0059 15.8906 84.2344 16.3125 84.4629C16.7168 84.6914 17.1387 84.9375 17.543 85.1836C17.9473 85.4297 18.334 85.6406 18.7031 85.8691C19.0547 86.0977 19.3887 86.3262 19.7051 86.5371C20.9355 87.3633 21.7617 87.9082 21.7617 87.9082L20.9355 89.0332C20.9355 89.0332 20.1445 88.4531 18.9668 87.6094C18.668 87.3984 18.3516 87.1699 18.0176 86.9238C17.6836 86.6777 17.2969 86.4492 16.9277 86.2031C16.541 85.957 16.1543 85.7109 15.7324 85.4473C15.3105 85.1836 14.8887 84.9199 14.4844 84.6387C14.0801 84.3574 13.6934 84.0586 13.2891 83.7773L12.709 83.3555C12.6211 83.2852 12.5156 83.2148 12.4277 83.1445L12.2695 83.0391L12.1289 82.9336C11.7598 82.6523 11.4082 82.3711 11.0742 82.125C10.8984 82.002 10.7402 81.8613 10.582 81.7559C10.4238 81.6328 10.2832 81.5098 10.125 81.3867C9.84375 81.1406 9.5625 80.9473 9.35156 80.7363C9.12305 80.5254 8.92969 80.3496 8.77148 80.209C8.45508 79.9102 8.2793 79.752 8.2793 79.752L8.77148 79.1895V79.1895Z" fill="#E5E5E5"/>
<path d="M17.5605 81.3867C17.7741 81.3867 17.9473 81.2136 17.9473 81C17.9473 80.7864 17.7741 80.6133 17.5605 80.6133C17.347 80.6133 17.1738 80.7864 17.1738 81C17.1738 81.2136 17.347 81.3867 17.5605 81.3867Z" fill="#00B1FF"/>
<path d="M18.7559 81.4219C18.9889 81.4219 19.1777 81.233 19.1777 81C19.1777 80.767 18.9889 80.5781 18.7559 80.5781C18.5229 80.5781 18.334 80.767 18.334 81C18.334 81.233 18.5229 81.4219 18.7559 81.4219Z" fill="#00B1FF"/>
<path d="M18.7566 81.1934C18.6687 81.1934 18.5808 81.123 18.5808 81.0176C18.5632 80.6309 18.4226 79.8398 18.0886 79.8047C17.9832 79.7871 17.9128 79.6992 17.9304 79.6113C17.948 79.5059 18.0359 79.4355 18.1238 79.4531C18.8621 79.5234 18.95 80.8594 18.95 81.0176C18.95 81.1055 18.8621 81.1934 18.7566 81.1934ZM17.5613 81.1934C17.4734 81.1934 17.3855 81.123 17.3855 81.0176C17.3679 80.6309 17.2273 79.8398 16.8933 79.8047C16.7878 79.7871 16.7175 79.6992 16.7351 79.6113C16.7527 79.5059 16.8406 79.4355 16.9285 79.4531C17.6668 79.5234 17.7546 80.8594 17.7546 81.0176C17.7546 81.1055 17.6668 81.1758 17.5613 81.1934Z" fill="#2B3B47"/>
<path d="M19.459 86.4141C19.5293 86.4668 19.6172 86.5195 19.6875 86.5723C20.918 87.3984 21.7441 87.9434 21.7441 87.9434C22.2891 87.1875 23.2383 85.8691 23.7656 85.1309C23.8008 85.0781 23.8535 85.0254 23.8887 84.9551C22.2891 84.4453 20.4961 84.9902 19.459 86.4141V86.4141Z" fill="#00B1FF"/>
<path d="M44.4727 36.0176C44.2441 35.6133 44.0859 35.1738 43.9981 34.7344C43.6289 35.1211 43.2598 35.5254 42.8906 35.9121L40.2715 38.7246L39.4102 39.6562L31.1309 32.8535C31.2539 32.5371 31.3066 32.1855 31.2539 31.8164L31.1484 31.0781C31.1133 30.832 31.0781 30.5859 31.0254 30.3398C30.9902 30.0937 30.9375 29.8477 30.9023 29.6016C30.8672 29.3555 30.8145 29.1094 30.7617 28.8633C30.5684 27.9316 29.707 27.2637 28.7402 27.3164C28.6699 27.3164 28.5996 27.334 28.5293 27.334C27.8262 26.6309 26.6836 26.5957 25.9277 27.2637C25.541 27.6152 25.1367 27.9492 24.75 28.3184L24.5742 28.4766C23.8711 29.1269 23.8008 30.2168 24.4336 30.9551C24.9082 31.5176 25.4004 32.0801 25.9102 32.6074C26.0332 32.748 26.1738 32.8711 26.2969 33.0117C26.4199 33.1523 26.5605 33.2754 26.6836 33.416C26.9473 33.6797 27.2285 33.9434 27.5098 34.1894C27.6152 34.2773 27.7383 34.3477 27.8613 34.4004L37.7754 45.4219L37.793 45.4394C38.7422 46.4766 40.3594 46.5469 41.3965 45.5801L41.6953 45.2988L44.3145 42.5215L46.9512 39.7617L48.3223 38.3379C46.7754 38.3203 45.2813 37.4766 44.4727 36.0176V36.0176ZM62.9121 34.541L62.6133 34.3652L56.25 30.9902L54.791 30.1992L55.2481 36.1055L58.5352 37.8105L56.0391 46.2129L56.5313 52.5059C56.5488 52.5762 56.5488 52.6465 56.5488 52.6992C56.5488 53.1387 56.3203 53.5605 55.916 53.9473L56.3906 55.1426C56.6719 54.9492 56.918 54.668 57.0762 54.3164L58.6231 50.7129C58.7285 50.4492 58.7988 50.1328 58.7988 49.834C58.7988 49.4648 58.7109 49.1133 58.5527 48.8144L63.791 37.4062C64.2656 36.3867 63.8965 35.1387 62.9121 34.541V34.541ZM32.0801 63.7383C31.9219 63.9316 31.7813 64.1426 31.623 64.3359L30.6211 65.707L30.5859 65.7422L30.5684 65.7598V65.7773L30.5859 65.7598L30.5156 65.8476L30.3926 66.0234L30.1289 66.375L29.6191 67.0605C29.2676 67.5176 28.9336 67.9746 28.5996 68.4492C28.2656 68.9062 27.9316 69.3633 27.5977 69.8379C27.2813 70.2949 26.9473 70.7695 26.6309 71.2266C26.3145 71.6836 26.0156 72.1406 25.7168 72.5976C25.1191 73.4941 24.5391 74.373 24.0117 75.2344C23.748 75.6562 23.4844 76.0781 23.2559 76.4648C23.0098 76.8691 22.7813 77.2559 22.5527 77.6426C22.3242 78.0117 22.1133 78.3808 21.9199 78.7324C21.7266 79.084 21.5332 79.418 21.3574 79.7344C21.1816 80.0508 21.0234 80.3496 20.8828 80.6133C20.7422 80.8945 20.6016 81.1406 20.4961 81.3691C20.4258 81.4922 20.373 81.6152 20.3203 81.7383C20.5137 82.0371 20.7773 82.3183 21.0762 82.5469C21.8848 83.1269 22.8867 83.2676 23.7656 82.916C23.9238 82.7402 24.0996 82.582 24.293 82.3887C24.7852 81.8965 25.3477 81.334 25.9453 80.7187C27.1406 79.4883 28.5293 78.0469 30.0234 76.5176C31.5 74.9707 33.0645 73.3008 34.6465 71.6484C35.0508 71.2266 35.4551 70.8047 35.8594 70.3652C36.2461 69.9433 36.6152 69.5215 37.002 69.0996C37.125 68.959 37.2481 68.8359 37.3535 68.7129L32.0801 63.7383V63.7383Z" fill="#FFD3B6"/>
<path d="M15.5566 83.1797C16.2773 83.6367 17.0859 83.8477 17.877 83.8477C18.8086 83.8477 19.7402 83.5488 20.5137 82.9687C20.3203 82.8105 20.1621 82.6523 20.0039 82.4766C18.7559 83.3555 17.0508 83.3906 15.75 82.4766C15.9082 81.6328 15.8027 80.7539 15.4688 79.9453C15.2051 79.9102 14.9414 79.875 14.625 79.8223C15.2578 80.9297 15.293 82.3359 14.6426 83.4785C14.7832 83.5664 14.9238 83.6543 15.0645 83.7598C15.1172 83.7949 15.1699 83.8301 15.2402 83.8652C15.3633 83.6367 15.4688 83.4082 15.5566 83.1797V83.1797Z" fill="white"/>
<path d="M46.9344 0C43.1551 0 37.9168 0.861328 37.741 1.00195C37.5652 1.14258 38.0926 2.21484 37.9168 2.37305C37.5652 2.70703 37.2312 3.07617 36.8797 3.49805C36.5633 3.88477 37.0555 4.11328 38.6726 4.16602C39.0945 4.18359 38.6023 5.2207 39.0945 5.2207C39.3582 5.2207 44.1746 3.09375 44.1746 10.7051C44.1746 11.3027 44.4558 11.6895 45.0183 11.7246C45.0887 11.6016 45.2293 11.5137 45.3875 11.5137C46.6355 11.5137 47.6551 12.5332 47.6551 13.7813C47.6551 14.0801 47.6023 14.3613 47.4969 14.625C48.6394 16.5059 53.157 18.0527 53.3328 17.877C54.5984 16.5234 55.8465 13.0254 55.8465 9.54492C55.8816 6.08203 53.491 0 46.9344 0Z" fill="#68442A"/>
<path d="M74.7773 71.8242C75.0234 71.0332 75.6738 71.2266 76.2715 71.6309C76.4473 71.1387 76.5 70.5762 76.377 70.0137C76.1309 68.8711 75.2871 68.0273 74.1621 67.8164C74.0391 67.7988 73.9512 67.7109 73.916 67.6055L60.7324 68.959L59.9062 67.2188C59.8887 67.2188 59.8711 67.2363 59.8711 67.2363L53.0332 69.6973L55.2305 74.3906L55.4414 74.8477C56.0391 76.1309 57.4805 76.834 58.9043 76.4648L74.6367 72.3691C74.6543 72.2285 74.707 72.0352 74.7773 71.8242V71.8242Z" fill="#FFD3B6"/>
<path d="M83.2324 80.0508C83.2148 79.8398 83.1621 79.5937 83.127 79.2949C83.0918 78.9961 83.0215 78.6797 82.9512 78.3281C82.916 78.1523 82.8809 77.959 82.8457 77.7656C82.8105 77.5723 82.7578 77.3789 82.7051 77.168C82.6172 76.7637 82.5117 76.3242 82.4062 75.8848L82.3711 75.709V75.6914L82.3535 75.6562L82.3359 75.5684C82.3008 75.4629 82.2832 75.3398 82.248 75.2344C82.1953 75.0059 82.125 74.7773 82.0723 74.5488L81.7031 73.125C81.5625 72.6504 81.4043 72.2109 81.2637 71.7539C81.123 71.3145 80.9648 70.8398 80.8242 70.4004C80.6836 69.9609 80.543 69.5215 80.4375 69.1172C80.332 68.7129 80.2266 68.3086 80.1387 67.957C79.7695 66.5156 79.5234 65.5664 79.5234 65.5664C78.6094 65.7598 77.0273 66.1113 76.1484 66.3047C75.3047 66.4805 74.6016 66.7266 74.25 67.1309H74.3203C75.709 67.3945 76.7813 68.4492 77.0801 69.873C77.3965 71.2969 76.8516 72.6855 75.6914 73.5117C75.6387 73.5469 75.5508 73.582 75.498 73.582C75.3926 73.582 75.2871 73.5293 75.2168 73.4414C75.1113 73.2832 75.1465 73.0723 75.3047 72.9492C75.7793 72.6152 76.1133 72.1582 76.3066 71.6484C75.6914 71.2266 75.041 71.0332 74.7949 71.8418C73.8984 74.8125 75.7266 72.8613 77.9941 74.8125C78.5039 75.2695 79.1543 75.9902 80.0156 77.1504C81.457 79.084 81.6855 81.1582 83.3379 80.6836C83.3027 80.5781 83.2676 80.3672 83.2324 80.0508V80.0508Z" fill="#76DFFF"/>
<path d="M83.3203 80.7188C83.3203 80.7188 83.2852 80.4727 83.2324 80.0508C83.2148 79.8398 83.1621 79.5937 83.127 79.2949C83.0918 78.9961 83.0215 78.6797 82.9512 78.3281C82.916 78.1523 82.8809 77.959 82.8457 77.7656C82.8105 77.5723 82.7578 77.3789 82.7051 77.168C82.6172 76.7637 82.5117 76.3242 82.4062 75.8848L82.3711 75.709V75.6738V75.6914L82.3535 75.6562L82.3359 75.5684C82.3008 75.4629 82.2832 75.3398 82.248 75.2344C82.1953 75.0059 82.125 74.7773 82.0723 74.5488L81.7031 73.125C81.5625 72.6504 81.4043 72.2109 81.2637 71.7539C81.123 71.3145 80.9648 70.8398 80.8242 70.4004C80.6836 69.9609 80.543 69.5215 80.4375 69.1172C80.332 68.7129 80.2266 68.3086 80.1387 67.957C79.7695 66.5156 79.5234 65.5664 79.5234 65.5664L80.8945 65.2676C80.8945 65.2676 81.1055 66.2168 81.4043 67.6406C81.4746 67.9922 81.5625 68.3789 81.6504 68.8008C81.7383 69.2051 81.8613 69.627 81.9844 70.0664C82.1074 70.5059 82.2129 70.9453 82.3535 71.4375C82.4766 71.9121 82.6348 72.3867 82.7578 72.8789L83.0742 74.3027C83.127 74.5313 83.1797 74.7773 83.2324 75.0059C83.25 75.1289 83.2852 75.2344 83.3027 75.3574L83.3379 75.5508L83.373 75.7266C83.4609 76.1836 83.5488 76.623 83.6191 77.0449C83.6543 77.2559 83.6895 77.4492 83.7246 77.6602C83.7598 77.8535 83.7773 78.0469 83.8125 78.2402C83.8652 78.6094 83.9355 78.9434 83.9531 79.2422C83.9883 79.541 84.0234 79.8047 84.041 80.0156C84.0762 80.4375 84.0938 80.6836 84.0938 80.6836L83.3203 80.7188V80.7188Z" fill="#E5E5E5"/>
<path d="M77.9941 73.8984C78.2077 73.8984 78.3809 73.7253 78.3809 73.5117C78.3809 73.2981 78.2077 73.125 77.9941 73.125C77.7806 73.125 77.6074 73.2981 77.6074 73.5117C77.6074 73.7253 77.7806 73.8984 77.9941 73.8984Z" fill="#00B1FF"/>
<path d="M77.0977 73.125C77.3307 73.125 77.5195 72.9361 77.5195 72.7031C77.5195 72.4701 77.3307 72.2812 77.0977 72.2812C76.8647 72.2812 76.6758 72.4701 76.6758 72.7031C76.6758 72.9361 76.8647 73.125 77.0977 73.125Z" fill="#00B1FF"/>
<path d="M76.6583 74.373C76.6056 74.373 76.5529 74.3555 76.5177 74.3203C76.0079 73.7754 76.8517 72.7207 76.9396 72.5976C77.0099 72.5273 77.1154 72.5098 77.2033 72.5801C77.2736 72.6504 77.2911 72.7559 77.2208 72.8437C76.9747 73.1426 76.5529 73.8281 76.7814 74.0918C76.8517 74.1621 76.8517 74.2851 76.7638 74.3555C76.7462 74.3555 76.7111 74.373 76.6583 74.373V74.373ZM77.5548 75.1641C77.5021 75.1641 77.4493 75.1465 77.4142 75.1113C76.9044 74.5664 77.7482 73.5117 77.8361 73.3887C77.9064 73.3184 78.0118 73.3008 78.0997 73.3711C78.1876 73.4414 78.1876 73.5469 78.1173 73.6348C77.8712 73.9336 77.4493 74.6191 77.6779 74.8828C77.7482 74.9531 77.7482 75.0762 77.6603 75.1465C77.6427 75.1465 77.59 75.1641 77.5548 75.1641V75.1641ZM75.4806 73.582C75.3751 73.582 75.2697 73.5293 75.1993 73.4414C75.0939 73.2832 75.129 73.0723 75.2872 72.9492C76.2189 72.2812 76.6408 71.1738 76.3947 70.0312C76.1486 68.8887 75.3048 68.0449 74.1798 67.834C73.9865 67.7988 73.8634 67.623 73.8986 67.4297C73.9337 67.2363 74.1271 67.1133 74.3029 67.1484C75.6915 67.4121 76.7638 68.4668 77.0626 69.8906C77.379 71.3144 76.8341 72.7031 75.674 73.5293C75.6212 73.5469 75.5509 73.582 75.4806 73.582V73.582Z" fill="#2B3B47"/>
<path d="M80.209 68.2207L79.9981 65.4609C79.3301 65.6016 77.2031 66.0586 76.1309 66.3047L75.9199 66.3574C76.7637 67.7813 78.4687 68.5899 80.209 68.2207V68.2207Z" fill="#00B1FF"/>
<path d="M81.6855 73.125C81.668 73.0547 81.6504 73.002 81.6328 72.9316C81.3867 73.0195 81.1582 73.1074 80.9297 73.2305C80.4199 71.4551 78.873 70.2422 77.0977 70.084C77.1328 70.3301 77.1504 70.5586 77.1504 70.7871C77.6953 70.8574 78.2402 71.0332 78.7148 71.3496C79.541 71.877 80.1035 72.6855 80.3145 73.6348C79.6289 74.1621 79.1191 74.8828 78.8379 75.709C79.0137 75.9023 79.1895 76.1133 79.3828 76.3594C79.6465 75.1113 80.5605 74.0391 81.8262 73.6172C81.7734 73.4414 81.7207 73.2832 81.6855 73.125V73.125Z" fill="white"/>
<path d="M60.5396 65.7422L55.9165 53.9473C54.4048 55.4063 50.3443 56.4434 45.563 56.4434C41.5904 56.4434 39.1118 55.7227 37.8638 54.6504L31.4126 61.541C30.9732 61.9981 30.9907 62.7363 31.4654 63.1758L37.7935 69.1348C38.2505 69.5742 38.9888 69.5566 39.4282 69.082L44.7544 63.3516C45.3345 62.7363 46.3716 62.9297 46.6704 63.7207L49.0962 69.9258C49.3247 70.5059 49.9751 70.8047 50.5728 70.5938L59.854 67.2539C60.4693 67.0254 60.7857 66.3398 60.5396 65.7422V65.7422Z" fill="#00B1FF"/>
<path d="M56.5312 52.4883L54.7559 29.8125C54.7559 27.2637 52.3125 25.1016 48.8848 24.2402V25.6113C48.9199 25.7168 48.9375 25.8047 48.9375 25.9102C48.9375 26.8418 47.4258 27.5977 45.5625 27.5977C43.6992 27.5977 42.1875 26.8418 42.1875 25.9102V24.3633C39.6562 25.2949 38.6895 27.3867 38.6895 29.8125L38.0039 38.4961L39.3926 39.6387L40.2539 38.707L42.873 35.8945C43.2422 35.5078 43.6113 35.1035 43.9805 34.7168C44.0684 35.1563 44.2266 35.5781 44.4551 36C45.2637 37.459 46.7578 38.2852 48.3223 38.3203L46.9512 39.7441L44.3145 42.5039L41.6953 45.2813L41.3965 45.5625C40.3594 46.5117 38.7422 46.459 37.793 45.4219L37.7754 45.4043L37.5117 45.1055L36.9492 52.2949C36.9316 52.418 36.9141 52.541 36.9141 52.6641C36.9141 54.7383 39.5156 56.4082 45.5801 56.4082C51.6445 56.4082 56.5664 54.7383 56.5664 52.6641C56.5488 52.6113 56.5488 52.5586 56.5312 52.4883V52.4883Z" fill="#597B91"/>
</svg>
