<svg width="90" height="90" viewBox="0 0 90 90" fill="none" xmlns="http://www.w3.org/2000/svg">
<path d="M32.9834 31.1484L40.6193 25.882L56.6365 46.3851L44.2334 53.6625L32.9834 31.1484Z" fill="#FADCBC"/>
<path d="M41.3552 29.6143C41.9501 27.0854 40.3824 24.5531 37.8535 23.9581C35.3247 23.3632 32.7923 24.9309 32.1974 27.4597C31.6024 29.9886 33.1702 32.5209 35.699 33.1159C38.2279 33.7108 40.7602 32.1431 41.3552 29.6143Z" fill="#FADCBC"/>
<path d="M16.8047 28.2234L17.4937 21.5367L37.3781 23.857L36.4359 33.082L16.8047 28.2234Z" fill="#FADCBC"/>
<path d="M54.0779 56.2296C57.5045 54.2196 58.6528 49.8124 56.6428 46.3858C54.6327 42.9593 50.2255 41.811 46.799 43.821C43.3725 45.831 42.2242 50.2382 44.2342 53.6647C46.2442 57.0913 50.6514 58.2396 54.0779 56.2296Z" fill="#FADCBC"/>
<path d="M6.48297 30.825L6.53219 30.9656C7.51656 33.6586 10.5048 35.0438 13.1978 34.0594L19.3923 31.7953C22.0853 30.8109 23.4705 27.8227 22.4861 25.1297L22.4369 24.9891C21.4525 22.2961 18.4642 20.9109 15.7712 21.8953L9.57672 24.1594C6.88375 25.1508 5.49859 28.132 6.48297 30.825V30.825Z" fill="#FADCBC"/>
<path d="M13.5352 28.3219L15.5461 33.8062C15.7023 34.232 16.021 34.5784 16.4322 34.7695C16.8435 34.9606 17.3137 34.9809 17.7398 34.8258L20.0953 33.9609C22.8375 32.9555 24.2437 29.925 23.2383 27.1828L22.4578 25.0523L13.5352 28.3219V28.3219Z" fill="#FADCBC"/>
<path d="M48.3121 61.875L55.3645 46.9336L79.8684 58.507L65.7918 88.3055L41.2949 76.732L48.3121 61.875Z" fill="#FADCBC"/>
<path d="M34.1722 61.5445C34.7136 59.632 37.948 52.7836 39.08 51.1523C42.6589 45.9914 46.7652 42.9117 51.3847 45.0984L67.1347 52.5375L60.1035 67.4367L53.0582 82.3359L37.3082 74.8969C32.6886 72.7172 32.4566 67.5844 34.1722 61.5445V61.5445Z" fill="#FADCBC"/>
<path d="M42.9684 62.3742C43.2842 61.8978 43.5031 61.3638 43.6125 60.8027C43.722 60.2417 43.7198 59.6646 43.6062 59.1044C43.4926 58.5442 43.2698 58.0118 42.9504 57.5378C42.631 57.0637 42.2214 56.6572 41.7449 56.3414L38.6441 54.2883L33.8418 61.5445L36.9426 63.5976C38.9395 64.9266 41.6395 64.3781 42.9684 62.3742V62.3742Z" fill="#DBA689"/>
<path d="M36.6329 63.4008C36.6329 63.4008 38.1095 62.3883 39.6001 60.1453C41.0837 57.9023 41.5126 56.1797 41.5126 56.1797L37.9477 53.8172C36.9915 53.1844 35.5431 53.1351 34.9102 54.0844L32.1892 58.1906C31.5563 59.1398 32.1118 60.4055 33.061 61.0383L36.6329 63.4008Z" fill="#DBA689"/>
<path d="M13.1838 42.8625C13.1838 42.8625 13.2752 42.7148 13.3174 42.6516L13.458 42.4406C19.083 35.0016 24.5533 36.218 27.8861 37.7367C31.5002 39.375 34.0103 40.8445 34.0103 40.8445C34.0103 40.8445 33.7924 40.8867 33.4408 40.9992C33.0752 41.1258 32.7728 41.3297 32.7728 41.3297L35.2619 43.5727L27.7807 42.532C27.7583 42.5278 27.7353 42.5311 27.7149 42.5412C27.6946 42.5514 27.6782 42.5679 27.6682 42.5883L26.7822 44.318C25.887 46.0537 24.9013 47.7411 23.8291 49.3734C23.7799 49.4437 23.7307 49.5141 23.6885 49.5844C23.6392 49.6547 23.5971 49.725 23.5478 49.7953C22.4643 51.4216 21.2955 52.9894 20.0463 54.4922L18.8017 55.9828C18.787 56.0003 18.7784 56.0221 18.7771 56.0449C18.7758 56.0677 18.782 56.0904 18.7947 56.1094L22.676 62.5922L19.6385 61.1719C19.6385 61.1719 19.5611 61.5305 19.5963 61.9172C19.6244 62.2828 19.6736 62.5008 19.6736 62.5008C19.6736 62.5008 17.0861 60.8484 14.3158 58.0078C11.6791 55.3148 8.64159 50.7234 13.1838 42.8625Z" fill="#6D4C41"/>
<path d="M19.7575 60.7289C19.7575 60.7289 18.8997 62.6836 20.7911 63.9351C22.4575 65.0391 23.9622 64.1953 24.813 62.9156L20.2919 59.9203L19.7575 60.7289V60.7289ZM32.4278 41.5828C32.4278 41.5828 33.8974 40.0289 35.7818 41.2805C37.4482 42.3844 37.2583 44.1 36.4146 45.3797L31.8935 42.3844L32.4278 41.5828V41.5828Z" fill="#DBA689"/>
<path d="M13.7107 42.9609C18.717 35.3953 25.8959 37.3008 34.1295 42.757C42.6725 48.4102 41.2451 55.3641 38.5592 59.4211C35.9154 63.4148 30.0935 67.5422 21.4873 61.8469C13.2607 56.3836 8.70449 50.5266 13.7107 42.9609V42.9609Z" fill="#FADCBC"/>
<path d="M30.663 49.6617C31.5138 50.2242 32.5826 50.1117 33.0466 49.4086C33.5107 48.7055 33.2013 47.6719 32.3505 47.1094C31.4997 46.5469 30.431 46.6594 29.9599 47.3625C29.4958 48.0727 29.8052 49.0922 30.663 49.6617ZM26.5005 55.9406C27.3513 56.5031 27.6607 57.5297 27.1966 58.2398C26.7326 58.943 25.6638 59.0625 24.813 58.493C23.9622 57.9305 23.6529 56.8969 24.1169 56.1938C24.581 55.4906 25.6497 55.3781 26.5005 55.9406Z" fill="#C07B47"/>
<path d="M30.5509 56.025C30.9938 55.6453 31.3806 55.1953 31.6337 54.8227C31.8868 54.45 32.1399 53.9156 32.3157 53.3602C32.3931 53.1211 32.6321 53.1703 32.7165 53.325C32.8782 53.6484 33.0118 54.5977 32.4845 55.3922C31.9571 56.1867 31.036 56.4328 30.6704 56.4117C30.5017 56.3977 30.361 56.1938 30.5509 56.025V56.025Z" fill="#DBA689"/>
<path d="M27.8863 53.7469C29.1801 54.6187 29.5035 56.4047 28.0059 58.6195C26.5293 60.8062 24.7293 61.207 23.4356 60.3352C22.1418 59.4633 21.7621 57.7547 23.316 55.4625C24.8207 53.2336 26.5856 52.875 27.8863 53.7469Z" fill="#01579B"/>
<path d="M27.7174 60.4477L24.3916 54.7453L24.7924 52.5938L28.1182 58.2961L27.7174 60.4477Z" fill="white"/>
<path d="M33.6656 45.1898C34.9594 46.0617 35.2828 47.8476 33.7852 50.0625C32.3086 52.2492 30.5086 52.65 29.2149 51.7781C27.9211 50.9062 27.5414 49.1976 29.0953 46.9055C30.6 44.6695 32.3719 44.318 33.6656 45.1898V45.1898Z" fill="#01579B"/>
<path d="M33.4967 51.8906L30.1709 46.1883L30.5787 44.0297L33.9045 49.732L33.4967 51.8906Z" fill="white"/>
<path d="M30.1848 51.9328L28.3918 54.5836L27.0699 53.6906L28.8629 51.0398L30.1848 51.9328ZM33.5176 42.2719C34.4035 43.3266 34.4738 44.6484 34.1926 45.9984L32.8707 45.1055C33.3699 44.0086 33.2715 42.7641 32.1957 41.3789L33.5176 42.2719V42.2719ZM20.6715 61.2914C21.9863 61.7133 23.2379 61.2844 24.391 60.5109L23.0621 59.625C22.2324 60.5039 21.0371 60.8766 19.3496 60.4055L20.6715 61.2914V61.2914Z" fill="#01579B"/>
<path d="M12.7689 42.0539C12.7689 42.0539 12.6635 42.2016 12.6283 42.2648C12.5861 42.3281 12.4947 42.4758 12.4947 42.4758C7.57987 50.7094 11.215 56.3766 13.9361 58.7109C16.9455 61.2914 19.6807 62.5078 19.6807 62.5078C19.6807 62.5078 19.6314 62.2898 19.6033 61.9242C19.5752 61.5375 19.6455 61.1789 19.6455 61.1789C19.6455 61.1789 18.7666 57.3609 19.3221 54.1828C19.8916 50.9414 23.4213 45.6117 25.826 44.0156C28.3713 42.3211 29.8408 41.5758 32.7869 41.3297C32.7869 41.3297 33.0892 41.1188 33.4549 40.9992C33.7994 40.8797 34.0244 40.8445 34.0244 40.8445C34.0244 40.8445 31.7744 38.932 28.2869 37.0406C25.6291 35.6063 18.6892 34.193 12.7689 42.0539V42.0539Z" fill="#EF6C00"/>
<path d="M67.507 62.6906C63.2461 62.6906 60.8766 57.6352 56.257 57.6352C51.6375 57.6352 49.275 62.6906 45.007 62.6906C40.7391 62.6906 38.3766 57.6352 33.757 57.6352C29.1375 57.6352 26.775 62.6906 22.507 62.6906C18.2391 62.6906 15.8766 57.6352 11.257 57.6352C6.6375 57.6352 4.275 62.6906 0.00703125 62.6906V57.6352H0V90H89.9508V62.6906C85.725 62.6484 83.3555 57.6422 78.757 57.6422C74.1375 57.6422 71.768 62.6906 67.507 62.6906Z" fill="#039BE5"/>
<path d="M89.9785 69.2578C85.7176 69.2578 83.348 74.3133 78.7285 74.3133H89.9785V69.2578ZM78.7285 74.3133C74.109 74.3133 71.7465 69.2578 67.4785 69.2578C63.2176 69.2578 60.848 74.3133 56.2285 74.3133H78.7285Z" fill="#29B6F6"/>
<path d="M56.2363 74.3133C51.6168 74.3133 49.2543 69.2578 44.9863 69.2578C40.7184 69.2578 38.3559 74.3133 33.7363 74.3133H56.2363Z" fill="#29B6F6"/>
<path d="M33.7432 74.3133C29.1236 74.3133 26.7611 69.2578 22.4932 69.2578C18.2252 69.2578 15.8627 74.3133 11.2432 74.3133H33.7432Z" fill="#29B6F6"/>
<path d="M11.25 74.3133C6.63047 74.3133 4.26797 69.2578 0 69.2578V74.3133H11.25ZM90 90H0V74.3133H90V90Z" fill="#29B6F6"/>
</svg>
