<svg width="90" height="90" viewBox="0 0 90 90" fill="none" xmlns="http://www.w3.org/2000/svg">
<path d="M51.0395 13.2398C49.3731 10.2586 45.4145 7.81875 42.0255 8.21953C38.2286 8.66953 36.077 11.2922 35.388 14.7094C35.1348 15.9469 35.1208 17.1914 35.2895 18.0844C35.3106 18.1898 35.4864 18.9703 35.4864 19.2094C35.5848 20.1445 33.7497 20.9812 33.4895 22.0008C33.2926 22.7672 34.8817 23.3297 35.0012 23.4703C35.5989 24.1875 34.4528 27.4711 38.8473 27.9703C40.3801 28.1461 41.3364 27.8859 41.8708 27.9281C43.1364 28.0336 43.8395 32.2242 43.8395 32.2242L50.3153 28.3078C50.3153 28.3078 48.1567 25.1367 50.0411 21.8812C51.8622 19.2937 52.1083 15.1594 51.0395 13.2398V13.2398Z" fill="#FFCA28"/>
<path d="M35.374 25.3406C35.9857 25.4039 36.5975 25.2844 37.1318 24.9258C37.7154 24.532 37.3498 24.0469 36.6889 24.293C36.2881 24.4406 35.7326 24.4969 35.2334 24.3844L35.374 25.3406Z" fill="#795548"/>
<path d="M43.6358 19.4625L44.367 18.4289C44.824 17.8453 45.2389 17.3391 45.7943 17.4656C47.4326 17.8594 47.0811 20.7914 45.1193 21.4031C45.1193 21.4031 45.9561 23.9133 48.0233 24.518C48.2412 24.5812 48.4311 24.6234 48.6068 24.6445C49.1623 24.7148 49.6193 24.3 49.7811 23.7586C50.7654 20.3906 51.8904 21.0937 52.7553 17.1562C53.9436 11.7562 49.2186 8.05781 44.599 7.60078C42.799 7.425 40.9287 7.64297 39.2553 8.33906C38.5451 8.62734 36.0701 9.83672 35.5006 10.9828C34.7764 12.4453 35.6201 13.7391 35.6201 13.7391C35.6201 13.7391 39.8881 13.2328 42.0818 13.7812C42.3701 13.8516 42.6936 13.957 42.8201 14.2312C42.8764 14.3508 42.8904 15.0961 42.8904 15.2297C42.9397 16.9172 42.7568 17.9648 43.2209 19.0477C43.3053 19.2234 43.6358 19.4625 43.6358 19.4625V19.4625Z" fill="#543930"/>
<path d="M43.6358 19.4625L44.367 18.4289C44.824 17.8453 45.2389 17.3391 45.7943 17.4656C47.4326 17.8594 47.0811 20.7914 45.1193 21.4031C45.1193 21.4031 45.9561 23.9133 48.0233 24.518C48.2412 24.5812 48.4311 24.6234 48.6068 24.6445C49.1623 24.7148 49.6193 24.3 49.7811 23.7586C50.7654 20.3906 51.8904 21.0937 52.7553 17.1562C53.9436 11.7562 49.2186 8.05781 44.599 7.60078C42.799 7.425 40.9287 7.64297 39.2553 8.33906C38.5451 8.62734 36.0701 9.83672 35.5006 10.9828C34.7764 12.4453 35.6201 13.7391 35.6201 13.7391C35.6201 13.7391 39.8881 13.2328 42.0818 13.7812C42.3701 13.8516 42.6936 13.957 42.8201 14.2312C42.8764 14.3508 42.8904 15.0961 42.8904 15.2297C42.9397 16.9172 42.7568 17.9648 43.2209 19.0477C43.3053 19.2234 43.6358 19.4625 43.6358 19.4625V19.4625Z" fill="url(#paint0_radial_3_3113)"/>
<path d="M38.6118 19.8829C38.6212 19.1956 38.267 18.6335 37.8204 18.6273C37.3739 18.6212 37.0042 19.1733 36.9947 19.8606C36.9852 20.5478 37.3395 21.11 37.7861 21.1161C38.2326 21.1223 38.6023 20.5702 38.6118 19.8829Z" fill="#404040"/>
<path d="M37.259 18.007C36.4505 18.1617 36.3169 17.6203 36.6192 17.2336C36.8442 16.9453 37.3434 16.7344 38.2434 17.0086C39.0942 17.2617 39.3965 17.7961 39.6004 18.1266C39.8044 18.45 39.7481 18.7523 39.5442 18.7594C39.27 18.7594 38.2575 17.8172 37.259 18.007V18.007Z" fill="#6D4C41"/>
<path d="M30.5369 82.0828C30.9588 82.2164 31.4158 81.9844 31.5494 81.5625L32.1471 79.6852C32.5549 78.4125 31.7322 76.5422 31.7322 76.5422L27.0635 75.0375L22.4158 75.0727C21.2697 75.143 20.2783 75.9094 19.9197 76.9992L19.6455 77.843C19.526 78.2156 19.7299 78.6094 20.1025 78.7289L30.5369 82.0828V82.0828Z" fill="#4568AD"/>
<path d="M58.458 47.1516L46.4908 49.6969L46.3994 51.4899L40.8166 51.6164C37.3854 51.9539 32.6111 51.7359 30.783 58.9922L25.9385 74.8758L32.8643 77.2875C32.8643 77.2875 38.4189 62.1984 38.7705 62.2195C39.1221 62.2336 49.4158 62.7891 56.1869 61.868C62.9369 60.9609 58.458 47.1516 58.458 47.1516V47.1516Z" fill="#7C7C7C"/>
<path d="M45.0637 50.7516C46.1535 42.2578 44.2059 42.1523 42.7363 36.6047C41.991 33.7922 42.9965 30.5508 44.1074 29.2219C46.5473 27.007 49.1699 26.4305 51.2723 28.3781C55.4137 32.2313 60.0613 47.3062 60.0613 47.3062C56.7496 53.4094 45.0637 50.7516 45.0637 50.7516Z" fill="url(#paint1_radial_3_3113)"/>
<path d="M55.1738 65.5102H57.9863V70.5305H55.1738V65.5102Z" fill="#C62828"/>
<path d="M30.4031 84.368L19.1672 80.7188C18.7749 80.5906 18.4495 80.3121 18.2623 79.9444C18.0751 79.5766 18.0415 79.1496 18.1687 78.757C18.4359 77.9414 19.3148 77.4914 20.1305 77.7586L31.3664 81.4078C32.182 81.675 32.632 82.5539 32.3648 83.3695C32.2367 83.7618 31.9582 84.0872 31.5904 84.2744C31.2227 84.4616 30.7957 84.4953 30.4031 84.368V84.368Z" fill="#424242"/>
<path d="M34.8326 78.4898C32.2943 78.4898 30.2412 80.55 30.2412 83.0813C30.2412 85.6195 32.3014 87.6727 34.8326 87.6727C37.3709 87.6727 39.424 85.6125 39.424 83.0813C39.4311 80.55 37.3709 78.4898 34.8326 78.4898Z" fill="#78909C"/>
<path d="M65.8262 42.0961C64.5536 42.0961 64.5535 43.4602 64.5535 43.9172L64.3778 64.4555L41.4067 63.2109C34.8254 63.2109 31.802 65.7281 29.4254 73.1813L26.0645 82.9336C25.945 83.2852 25.966 83.6719 26.1278 84.0094C26.2895 84.3469 26.5778 84.6 26.9364 84.7195C27.084 84.7688 27.2387 84.7969 27.3934 84.7969C27.991 84.7969 28.5254 84.4172 28.7223 83.8477L31.2184 76.6125C32.5121 77.0344 33.4262 78.2648 33.4262 79.65V83.0813C33.4262 83.8547 34.059 84.4875 34.8325 84.4875C35.6059 84.4875 36.2387 83.8547 36.2387 83.0813V79.65C36.2387 77.0625 34.5653 74.7703 32.1325 73.9547C34.1293 67.732 36.1262 66.0234 41.3223 66.0164L64.42 67.3594C65.2989 67.3594 65.77 67.2609 66.2692 66.6844C66.8246 66.0164 66.8317 64.9477 66.8317 64.9406L67.0989 43.7133C67.0989 42.307 66.3043 42.0961 65.8262 42.0961V42.0961Z" fill="#F44336"/>
<path d="M34.8188 84.607C34.1227 84.607 33.5532 84.143 33.4407 83.4469L33.2086 81.0914C33.1524 80.7187 33.4688 80.3883 33.8766 80.3883H35.6625C36.0633 80.3883 36.3727 80.7047 36.3375 81.0703L36.2532 83.4539C36.2532 84.0867 35.5149 84.607 34.8188 84.607V84.607ZM65.3696 44.1844C65.3696 42.4547 64.4274 42.1805 62.8735 42.1805H61.7204C60.0961 42.2016 59.829 42.9328 59.5336 43.9875C59.0063 45.8648 58.0008 55.7789 58.7813 58.5211C58.8024 58.5914 58.8375 58.6758 58.8657 58.7461L38.5032 58.1484C37.2868 58.1484 36.2602 58.5914 35.8524 61.0242C35.8524 61.0242 35.7751 61.3336 35.9157 62.5148C36.0563 63.6961 36.8368 64.2305 37.8563 64.2797L65.1657 65.6016L65.1305 65.5102C65.1727 65.5453 65.2008 65.5664 65.2008 65.5664L65.3696 44.1844V44.1844Z" fill="#424242"/>
<path d="M49.7744 64.793C51.3354 62.7539 53.7611 61.5867 56.8197 61.7344C60.3635 61.8961 62.5502 64.0617 63.6682 65.5312L66.0588 65.5805C66.108 62.8453 66.2416 55.807 66.2416 55.807C64.4557 52.8117 45.3307 47.6367 38.9111 64.3008L49.7744 64.793Z" fill="#212121"/>
<path d="M65.1518 66.0586L66.4244 65.6648C66.4244 64.1953 66.2416 54.4781 66.2416 54.4781C64.3643 51.3422 43.7627 45.5977 38.0674 65.5312L41.7518 65.5172L47.6369 65.8617C49.0572 62.6766 52.8541 60.4758 56.9111 60.6586C62.9439 60.9398 65.1518 66.0586 65.1518 66.0586V66.0586Z" fill="#F44336"/>
<path d="M56.5803 71.3039C56.1514 71.3039 55.7998 70.9523 55.7998 70.5234C55.7998 70.0945 56.1514 69.743 56.5803 69.743C57.0092 69.743 57.3607 70.0945 57.3607 70.5234C57.3607 70.9523 57.0092 71.3039 56.5803 71.3039Z" fill="url(#paint2_radial_3_3113)"/>
<path d="M56.5803 70.1016C56.8123 70.1016 57.0092 70.2914 57.0092 70.5305C57.0092 70.7625 56.8193 70.9594 56.5803 70.9594C56.3412 70.9594 56.1514 70.7695 56.1514 70.5305C56.1514 70.2914 56.3482 70.1016 56.5803 70.1016ZM56.5803 69.3984C56.28 69.3984 55.9921 69.5177 55.7798 69.73C55.5675 69.9423 55.4482 70.2302 55.4482 70.5305C55.4482 70.8307 55.5675 71.1186 55.7798 71.3309C55.9921 71.5432 56.28 71.6625 56.5803 71.6625C56.8805 71.6625 57.1684 71.5432 57.3807 71.3309C57.593 71.1186 57.7123 70.8307 57.7123 70.5305C57.7123 70.2302 57.593 69.9423 57.3807 69.73C57.1684 69.5177 56.8805 69.3984 56.5803 69.3984V69.3984Z" fill="#82AEC0"/>
<path d="M42.0186 70.5305H71.142M56.5803 55.9688V85.0922V55.9688ZM66.874 60.2297L46.2865 80.8242L66.874 60.2297ZM66.874 80.8242L46.2865 60.2297L66.874 80.8242Z" stroke="#82AEC0" stroke-miterlimit="10" stroke-linecap="round"/>
<path d="M56.5809 53.3742C47.1098 53.3742 39.4316 61.0523 39.4316 70.5234C39.4316 79.9945 47.1098 87.6797 56.5809 87.6797C66.052 87.6797 73.7301 80.0016 73.7301 70.5305C73.7301 61.0594 66.052 53.3742 56.5809 53.3742ZM56.5809 84.4102C48.9168 84.4102 42.7012 78.1945 42.7012 70.5305C42.7012 62.8664 48.9168 56.6508 56.5809 56.6508C64.2449 56.6508 70.4605 62.8664 70.4605 70.5305C70.4605 78.1945 64.2449 84.4102 56.5809 84.4102Z" fill="#78909C"/>
<path d="M56.5807 58.7672C63.0635 58.7672 68.3439 64.0406 68.3439 70.5305C68.3439 77.0203 63.0705 82.2937 56.5807 82.2937C50.0908 82.2937 44.8174 77.0203 44.8174 70.5305C44.8174 64.0406 50.0979 58.7672 56.5807 58.7672ZM56.5807 58.0641C49.6971 58.0641 44.1143 63.6469 44.1143 70.5305C44.1143 77.4141 49.6971 82.9969 56.5807 82.9969C63.4643 82.9969 69.0471 77.4141 69.0471 70.5305C69.0471 63.6469 63.4643 58.0641 56.5807 58.0641Z" fill="#546E7A"/>
<path d="M56.5803 73.4203C58.1763 73.4203 59.4701 72.1265 59.4701 70.5305C59.4701 68.9345 58.1763 67.6406 56.5803 67.6406C54.9843 67.6406 53.6904 68.9345 53.6904 70.5305C53.6904 72.1265 54.9843 73.4203 56.5803 73.4203Z" fill="#757575"/>
<path opacity="0.8" d="M41.8643 65.8055C42.926 62.3672 45.3025 59.1047 48.7479 57.2203" stroke="#94D1E0" stroke-width="2" stroke-miterlimit="10" stroke-linecap="round"/>
<path d="M19.5605 77.9977L26.2051 80.1352" stroke="#757575" stroke-miterlimit="10" stroke-linecap="round"/>
<path d="M65.2924 53.5852C65.2924 53.5852 66.3401 54.0492 66.9448 54.8578L66.994 52.3898C66.319 51.7148 65.3135 51.5672 65.3135 51.5672L65.2924 53.5852V53.5852ZM38.4612 64.2727L37.976 66.3469C37.976 66.3469 37.076 66.4312 36.408 65.8828C35.2549 64.9336 35.3885 64.3922 35.3885 64.3922C35.7049 64.1461 36.6049 63.8438 36.6049 63.8438C36.6049 63.8438 37.1112 64.0898 37.5752 64.1883C38.0393 64.2867 38.4612 64.2727 38.4612 64.2727Z" fill="#C62828"/>
<path d="M52.6291 33.1453L49.001 37.0406L55.9479 41.8852L53.3603 51.3211L56.4611 52.5727C56.4611 52.5727 60.0752 44.5992 60.7502 43.2703C61.8611 41.0625 61.7627 39.6984 60.3775 38.1234C59.6393 37.2937 52.6291 33.1453 52.6291 33.1453V33.1453Z" fill="url(#paint3_linear_3_3113)"/>
<path d="M56.6932 51.6727C56.5315 51.5461 56.3909 51.4266 56.2573 51.3141C55.9831 51.082 55.7229 50.8641 55.3081 50.6039C54.8018 50.2945 52.3901 51.2578 51.8417 51.4617C51.6589 51.532 51.4901 51.5953 51.3354 51.6656C51.1245 51.757 50.9628 51.9187 50.8924 52.1086C50.8643 52.1437 50.8362 52.1859 50.8081 52.2492C50.801 52.2773 50.794 52.2984 50.794 52.3266C50.794 52.3336 50.6182 53.3812 50.337 53.9508C50.2245 54.1687 50.2878 54.5414 50.5198 54.6258C50.5198 54.6258 50.3862 55.1672 50.2878 55.4414C50.1682 55.7648 50.2034 55.8703 50.1893 56.018C50.1612 56.2711 50.2596 56.4609 50.4424 56.5805C50.6674 56.7281 50.7518 56.6367 50.8573 56.7141C50.9628 56.7914 50.9276 56.918 50.9557 57.0656C51.0331 57.4594 51.3635 57.5648 51.4971 57.5789C51.9331 57.6211 52.0596 57.3469 52.137 57.3469C52.2776 57.3539 52.3057 57.4734 52.3198 57.5648C52.362 57.7617 52.5729 57.8672 52.7698 57.9305C53.2831 57.9867 53.6557 57.5508 53.6698 57.6211C53.726 57.8812 54.176 58.0781 54.4362 57.9727C54.6542 57.8812 54.7878 58.057 56.0885 56.0602C56.3487 55.7086 56.7706 54.7664 57.0518 53.8664L57.1854 53.4375C57.3964 52.7625 57.2065 52.0734 56.6932 51.6727V51.6727Z" fill="url(#paint4_linear_3_3113)"/>
<path d="M55.5042 50.5406C54.2667 50.0695 50.8636 51.2578 50.7792 52.3758C50.7581 52.6289 51.1027 53.0227 51.4121 52.8891C51.4121 52.8891 51.4121 53.1914 51.4331 53.2617C51.5316 53.6414 51.9675 53.6625 52.1011 53.6836C52.3472 53.7188 52.4667 53.775 52.4738 54.0211C52.4808 54.2531 52.6355 54.5133 52.8394 54.6328C53.0644 54.7594 53.2402 54.7875 53.5144 54.7172C53.641 54.682 53.7113 54.7594 53.7535 54.8859C53.8097 55.0617 53.9503 55.3008 54.098 55.3711C54.3722 55.5117 54.548 55.4836 54.7449 55.4766C54.8714 55.4766 54.9277 55.4906 55.0121 55.5891C55.0753 55.6734 55.0683 56.0039 55.2863 56.1234C56.2636 56.6367 56.8331 54.5484 57.2058 53.332C57.48 52.4461 56.9035 51.075 55.5042 50.5406V50.5406Z" fill="url(#paint5_linear_3_3113)"/>
<path d="M52.6783 40.4508L56.8056 33.8484L50.9345 30.1781C50.0588 29.6314 49.0019 29.4546 47.996 29.6867C46.9901 29.9187 46.1174 30.5406 45.5697 31.4156C45.0229 32.2913 44.8462 33.3482 45.0782 34.3541C45.3102 35.3601 45.9321 36.2328 46.8072 36.7805L52.6783 40.4508V40.4508Z" fill="#04A287"/>
<defs>
<radialGradient id="paint0_radial_3_3113" cx="0" cy="0" r="1" gradientUnits="userSpaceOnUse" gradientTransform="translate(43.6065 16.2733) rotate(0.888193) scale(10.863 10.4614)">
<stop offset="0.526" stop-color="#6D4C41" stop-opacity="0"/>
<stop offset="1" stop-color="#6D4C41"/>
</radialGradient>
<radialGradient id="paint1_radial_3_3113" cx="0" cy="0" r="1" gradientUnits="userSpaceOnUse" gradientTransform="translate(47.3504 38.2633) rotate(-18.161) scale(13.6997)">
<stop offset="0.364" stop-color="#00BFA5"/>
<stop offset="0.812" stop-color="#00B29A"/>
<stop offset="1" stop-color="#00AB94"/>
</radialGradient>
<radialGradient id="paint2_radial_3_3113" cx="0" cy="0" r="1" gradientUnits="userSpaceOnUse" gradientTransform="translate(56.5803 70.5277) scale(0.778361)">
<stop stop-color="#78909C"/>
<stop offset="0.562" stop-color="#617A86"/>
<stop offset="1" stop-color="#546E7A"/>
</radialGradient>
<linearGradient id="paint3_linear_3_3113" x1="60.4232" y1="47.1649" x2="51.9857" y2="41.2784" gradientUnits="userSpaceOnUse">
<stop offset="0.5" stop-color="#FFCA28"/>
<stop offset="1" stop-color="#FFB300"/>
</linearGradient>
<linearGradient id="paint4_linear_3_3113" x1="52.1904" y1="57.1781" x2="52.9758" y2="55.3465" gradientUnits="userSpaceOnUse">
<stop stop-color="#FFCA28"/>
<stop offset="1" stop-color="#FFB300"/>
</linearGradient>
<linearGradient id="paint5_linear_3_3113" x1="53.1221" y1="54.6996" x2="51.552" y2="57.4467" gradientUnits="userSpaceOnUse">
<stop offset="0.5" stop-color="#FFCA28"/>
<stop offset="1" stop-color="#FFB300"/>
</linearGradient>
</defs>
</svg>
