<?xml version="1.0" standalone="no"?>
<!DOCTYPE svg PUBLIC "-//W3C//DTD SVG 20010904//EN"
 "http://www.w3.org/TR/2001/REC-SVG-20010904/DTD/svg10.dtd">
<svg version="1.0" xmlns="http://www.w3.org/2000/svg"
 width="700.000000pt" height="700.000000pt" viewBox="0 0 700.000000 700.000000"
 preserveAspectRatio="xMidYMid meet">
<metadata>
Created by potrace 1.14, written by Peter Selinger 2001-2017
</metadata>
<g transform="translate(0.000000,700.000000) scale(0.100000,-0.100000)"
fill="#000000" stroke="none">
<path d="M3745 6530 c-2 -3 310 -319 693 -702 l697 -696 295 3 c263 2 303 5
373 23 184 50 335 172 414 333 63 126 77 192 77 344 0 147 -15 215 -71 330
-101 206 -262 319 -511 361 -45 8 -1963 11 -1967 4z"/>
<path d="M3874 5581 c-59 -27 -1260 -1230 -1286 -1288 -40 -90 -17 -194 58
-264 31 -29 972 -786 1007 -810 5 -4 -103 -193 -239 -420 -137 -228 -253 -422
-259 -431 -5 -10 -31 -53 -56 -96 -53 -88 -67 -131 -64 -188 5 -82 66 -167
143 -200 83 -35 199 -9 257 57 34 38 727 1188 751 1244 21 52 17 122 -10 182
-22 47 -52 73 -347 310 -381 303 -353 282 -390 313 l-29 25 395 395 395 395
283 -282 c155 -154 298 -289 317 -300 33 -17 74 -18 675 -20 625 -2 641 -2
685 18 122 55 172 198 111 322 -26 54 -87 102 -147 115 -22 5 -282 8 -579 7
l-540 -1 -450 447 c-247 246 -466 455 -485 464 -51 26 -146 29 -196 6z"/>
<path d="M1387 3734 c-1 -1 -45 -4 -97 -7 -52 -3 -129 -13 -170 -22 -513 -110
-914 -479 -1060 -972 -16 -54 -32 -116 -35 -138 -3 -22 -10 -62 -15 -90 -13
-77 -4 -339 15 -433 108 -548 521 -976 1064 -1103 47 -11 114 -23 150 -26 116
-12 326 -6 406 11 157 34 256 67 370 123 145 72 251 149 370 268 121 120 213
249 276 383 42 89 94 235 104 292 30 171 34 216 30 345 -2 77 -6 151 -8 165
-21 118 -32 165 -59 244 -136 410 -451 731 -857 876 -119 42 -120 43 -256 65
-76 12 -221 24 -228 19z"/>
<path d="M5500 3728 c-52 -4 -106 -9 -120 -12 -14 -3 -48 -10 -77 -15 -139
-26 -360 -120 -486 -207 -155 -108 -300 -256 -392 -399 -90 -140 -177 -357
-199 -495 -3 -19 -8 -46 -12 -60 -10 -44 -12 -313 -3 -385 6 -38 21 -115 35
-170 202 -796 1061 -1250 1830 -967 206 76 354 171 510 326 146 146 217 253
317 476 22 49 64 197 79 278 13 71 17 359 6 427 -24 143 -66 288 -116 394
-105 226 -285 437 -492 578 -126 85 -378 191 -495 208 -23 3 -52 8 -65 10 -83
17 -202 22 -320 13z m336 -488 c342 -86 594 -333 687 -674 29 -110 31 -346 3
-451 -34 -131 -93 -256 -165 -349 -48 -63 -176 -178 -244 -220 -166 -103 -301
-141 -502 -140 -157 0 -251 20 -381 79 -283 129 -480 385 -535 695 -12 70 -15
234 -5 290 60 332 271 602 568 724 73 30 183 59 258 69 74 9 235 -3 316 -23z"/>
</g>
</svg>
